<?xml version="1.0" encoding="UTF-8" standalone="no"?>
<!-- Created with Inkscape (http://www.inkscape.org/) -->

<svg
   version="1.2.2 (1:1.2.2+202212051550+b0a8486541)"
   id="svg2"
   width="434.23999"
   height="200.96001"
   viewBox="0 0 434.23999 200.96001"
   docname="world-map.svg"
   inkscape="http://www.inkscape.org/namespaces/inkscape"
   sodipodi="http://sodipodi.sourceforge.net/DTD/sodipodi-0.dtd"
   xlink="http://www.w3.org/1999/xlink"
   svg="http://www.w3.org/2000/svg">
   <path
      d="m 104.48,196.36183 c -1.51626,-0.57147 -1.76,-0.81946 -1.76,-1.79068 0,-0.8559 -0.10132,-0.92502 -1.67252,-1.14111 -1.480263,-0.20359 -1.86194,-0.42875 -3.320285,-1.9587 -1.116599,-1.17142 -1.872919,-2.34617 -2.346234,-3.64428 -0.450307,-1.23501 -1.032886,-2.16287 -1.639715,-2.61151 -1.092391,-0.80764 -1.214151,-1.68697 -0.301248,-2.17554 0.75639,-0.40481 0.823689,-1.23482 0.170176,-2.09884 -0.2584,-0.34164 -0.4744,-0.97509 -0.48,-1.40767 -0.006,-0.46207 -0.487018,-1.27484 -1.166138,-1.97032 -0.914275,-0.9363 -1.190649,-1.50782 -1.321856,-2.73349 -0.09124,-0.85232 -0.308288,-1.7292 -0.482332,-1.94862 -0.194272,-0.24491 -0.234938,-1.66569 -0.105332,-3.68 0.158829,-2.46851 0.08134,-3.91504 -0.312883,-5.84106 -0.651177,-3.18139 -1.020694,-9.83287 -0.797021,-14.34678 0.118644,-2.3943 -0.499529,-3.91422 -2.34086,-5.75556 -0.928186,-0.92818 -2.654672,-2.18487 -3.836634,-2.79264 -1.916185,-0.9853 -2.241843,-1.29571 -3.005721,-2.86502 -0.471184,-0.968 -1.39041,-2.44195 -2.042724,-3.27544 -0.652316,-0.83348 -1.361532,-2.05749 -1.576038,-2.72 -0.667286,-2.06095 -1.794848,-4.04826 -2.806973,-4.94725 -1.383449,-1.2288 -1.685856,-3.34672 -0.679632,-4.75983 0.655994,-0.92126 0.674112,-1.04398 0.193805,-1.31277 -1.262838,-0.70672 -0.322409,-3.43784 2.35001,-6.82471 2.134601,-2.70528 2.524348,-4.4634 1.450019,-6.54093 -0.269427,-0.52101 -0.489866,-1.30244 -0.489866,-1.73652 0,-0.43407 -0.18,-0.85376 -0.4,-0.93265 -0.644617,-0.23113 -1.52,0.38011 -1.52,1.06135 0,0.84541 -1.374982,0.84018 -2.963577,-0.0113 -0.656759,-0.352 -1.347901,-0.64 -1.535872,-0.64 -0.698487,0 -3.500237,-2.72205 -3.500394,-3.40082 -8.6e-5,-0.37445 -0.238464,-0.87845 -0.529725,-1.12 -0.291264,-0.24155 -0.725196,-0.907181 -0.964294,-1.479181 -0.369718,-0.884484 -0.597597,-1.040001 -1.523901,-1.040001 -1.695523,0 -3.992156,-1.158844 -5.495072,-2.772723 -1.118348,-1.200918 -1.506159,-1.431302 -2.108764,-1.252733 -2.459779,0.728912 -2.924151,0.638688 -7.17472,-1.393974 -2.268026,-1.084589 -4.600995,-2.432916 -5.184378,-2.996276 -1.023843,-0.988704 -1.053433,-1.087344 -0.851545,-2.838755 0.182921,-1.58688 0.106582,-1.989488 -0.608634,-3.20991 -0.449782,-0.767498 -1.254585,-1.81393 -1.788454,-2.325409 -0.533869,-0.511472 -0.970669,-1.205305 -0.970669,-1.541849 0,-0.336544 -0.495081,-1.425604 -1.100182,-2.420132 -0.612691,-1.007001 -1.195277,-2.47718 -1.314791,-3.317923 -0.218998,-1.540614 -0.812028,-2.389165 -1.411011,-2.018973 -0.540851,0.334266 -0.390867,1.167424 0.579341,3.218234 0.50207,1.061267 1.01967,2.641885 1.150227,3.51249 0.130554,0.870605 0.511658,2.12056 0.846893,2.77768 0.821878,1.611011 0.782061,2.180259 -0.152496,2.180259 -0.981027,0 -2.437981,-1.867971 -2.437981,-3.125754 0,-0.634748 -0.313635,-1.207907 -0.991449,-1.811843 -0.846023,-0.753808 -0.970077,-1.054931 -0.845732,-2.052893 0.09474,-0.760361 -0.06745,-1.59519 -0.463603,-2.386272 -0.388473,-0.775741 -0.584448,-1.761952 -0.540691,-2.720922 0.0826,-1.810192 -0.378247,-2.770601 -1.643375,-3.424825 -0.520233,-0.269021 -1.016525,-0.810512 -1.102871,-1.203312 -1.304634,-5.934926 -1.331288,-8.631767 -0.09623,-9.735883 0.355786,-0.318064 0.922598,-1.21711 1.259584,-1.997884 0.336986,-0.780772 1.182297,-2.037524 1.878468,-2.792781 0.696173,-0.755258 1.659984,-2.176986 2.141805,-3.159399 0.8483,-1.729654 0.913721,-1.783482 2.066432,-1.700253 0.654716,0.04727 1.292528,-0.01619 1.41736,-0.141017 0.124828,-0.124829 -0.28001,-0.226964 -0.899642,-0.226964 -1.505949,0 -2.902298,-1.25632 -2.760925,-2.484057 0.06775,-0.588375 0.310973,-0.906413 0.740864,-0.968756 0.561405,-0.08141 0.649245,-0.367152 0.715277,-2.326755 0.0414,-1.228669 0.264813,-2.626902 0.49647,-3.107187 0.839408,-1.740295 0.315837,-2.483837 -1.635513,-2.32265 -0.638784,0.05277 -0.729117,-0.06644 -0.64,-0.844579 0.07516,-0.656221 0.302275,-0.934208 0.823766,-1.008272 0.463216,-0.06579 0.72,0.06356 0.72,0.362678 0,0.255712 0.285501,0.539594 0.634448,0.630845 1.115575,0.291731 0.108333,-1.040979 -1.199872,-1.587584 -0.634649,-0.265171 -1.608653,-0.828983 -2.164448,-1.252909 -0.555795,-0.423925 -1.26416,-0.770774 -1.574142,-0.770774 -0.309983,0 -1.436699,-0.226242 -2.503814,-0.502759 -1.858848,-0.481676 -2.031505,-0.473403 -4.117323,0.197277 -1.381687,0.444271 -2.560325,0.631672 -3.225981,0.512923 -0.825871,-0.147332 -1.457072,0.04799 -2.968867,0.918719 -1.056,0.608208 -1.74,1.107632 -1.52,1.109836 0.22,0.0022 0.4,0.262138 0.4,0.577636 0,0.409734 -0.412738,0.684019 -1.444593,0.96 C 14.23749,35.646597 13.76,35.621109 13.76,35.005765 c 0,-0.293555 -0.171656,-0.437392 -0.4,-0.335171 -3.162635,1.415789 -6.2322434,2.449408 -7.2741745,2.449408 -1.6004714,0 -1.7361859,-0.708621 -0.2458256,-1.283555 0.572,-0.22066 2.0214534,-0.839805 3.2210073,-1.375879 L 11.242015,33.48589 10.181007,33.142946 C 8.7481896,32.679822 8.6268411,31.699455 9.9126478,30.974885 10.702946,30.529541 10.88,30.223401 10.88,29.302262 c 0,-1.479671 0.76826,-1.968092 3.840601,-2.441659 C 16.04027,26.65719 17.408,26.335837 17.76,26.146483 c 0.554275,-0.298165 0.404257,-0.389968 -1.12,-0.685381 -1.399448,-0.271223 -1.77939,-0.476709 -1.854651,-1.003061 -0.13378,-0.93562 1.226411,-1.503002 3.860609,-1.610393 2.675194,-0.109062 3.636746,-0.372943 3.146254,-0.863435 C 21.598495,21.790496 21.44,21.297237 21.44,20.888081 c 0,-0.82353 1.012109,-1.36808 2.542732,-1.36808 0.495588,0 1.836344,-0.352037 2.979457,-0.782303 1.151524,-0.433432 3.884715,-1.024366 6.128869,-1.325102 3.746605,-0.502076 4.295751,-0.504523 7.319712,-0.03262 1.798077,0.280598 4.061229,0.602986 5.029229,0.716417 0.968,0.11343 2.765107,0.480146 3.993568,0.814923 2.796272,0.762031 3.468755,0.759592 6.536633,-0.02371 1.362259,-0.347815 3.474253,-0.648374 4.693319,-0.667908 3.212886,-0.05148 7.783145,0.492702 9.215558,1.097303 0.681494,0.287647 1.526291,0.522996 1.877325,0.522996 0.480694,0 0.596928,0.157979 0.470876,0.64 -0.18926,0.723736 0.305133,0.790845 2.49272,0.338358 1.043127,-0.215763 1.114791,-0.271569 0.387251,-0.301558 -1.207926,-0.04979 -3.427251,-1.217525 -3.427251,-1.803304 0,-0.361174 0.474436,-0.487538 2,-0.53269 l 2,-0.0592 -1.68,-0.117529 c -1.198928,-0.08387 -1.68,-0.250189 -1.68,-0.580805 0,-0.257651 0.319575,-0.477435 0.72,-0.495175 0.685661,-0.03038 0.681844,-0.04296 -0.08,-0.263812 -0.517312,-0.149966 -1.289945,-0.02562 -2.186531,0.351897 -2.207209,0.929369 -3.573469,0.647294 -3.573469,-0.737772 0,-0.757167 4.310807,-3.103607 6.17002,-3.358441 1.711539,-0.234593 4.604643,0.370302 5.50998,1.152036 1.001427,0.864702 1.752663,1.012068 2.950755,0.578833 0.971808,-0.351411 1.158493,-0.331991 1.516608,0.157757 0.361703,0.494662 0.454253,0.503228 0.809693,0.07495 0.22072,-0.265952 0.904019,-0.483549 1.518445,-0.483549 1.041984,0 1.106976,0.0592 0.966077,0.88 -0.08308,0.484 -0.253844,1.118991 -0.379463,1.41109 -0.161337,0.375152 -0.03369,0.592891 0.434743,0.741565 1.202473,0.38165 0.805356,1.420425 -0.817453,2.13827 -1.183392,0.523471 -1.873911,0.617308 -3.44,0.467473 -1.413187,-0.135205 -2.227021,-0.05383 -2.919405,0.291894 -0.528,0.263648 -0.672,0.395104 -0.32,0.292124 1.621383,-0.474344 2.431242,-0.501246 3.571354,-0.118634 0.675756,0.226778 2.072556,0.381774 3.104006,0.344435 1.039251,-0.03762 2.071779,0.09512 2.315923,0.297747 0.246797,0.204822 0.688659,0.260146 1.004643,0.125789 0.486487,-0.206857 0.454266,-0.26873 -0.234246,-0.449831 -0.981869,-0.258262 -1.232701,-1.272334 -0.455315,-1.840771 0.843158,-0.616533 2.985456,-0.546933 3.23567,0.105124 0.123645,0.322209 -0.02803,0.694453 -0.391203,0.96 -0.326234,0.238548 -0.449155,0.433725 -0.273155,0.433725 0.176,0 0.599523,-0.206306 0.941161,-0.458457 0.497863,-0.367455 0.541763,-0.538957 0.221162,-0.864 -0.725546,-0.735599 -0.418794,-1.421571 0.96,-2.146791 0.748,-0.393434 1.072,-0.615861 0.72,-0.494281 -1.631786,0.563614 -2.670096,0.499584 -3.650294,-0.225108 -1.271962,-0.9404 -1.279367,-1.571363 -0.01845,-1.571363 0.534192,0 1.299548,-0.215103 1.700787,-0.478006 0.401241,-0.262903 1.404176,-0.570476 2.228742,-0.683496 1.217805,-0.166918 1.499213,-0.114253 1.499213,0.280577 0,0.430334 0.152585,0.433497 1.330774,0.02758 0.731927,-0.252168 1.919927,-0.415325 2.64,-0.36257 1.07197,0.07854 1.32749,0.224349 1.41,0.804607 0.0747,0.525014 -0.0912,0.748057 -0.64,0.860584 -0.40743,0.08354 -1.172774,0.242906 -1.700774,0.354141 -2.808189,0.591612 -2.981392,0.580344 -3.093562,-0.201266 -0.104819,-0.730417 -0.112419,-0.728469 -0.499577,0.128077 -0.380893,0.842678 -0.362589,0.869775 0.587516,0.869775 0.956676,0 0.978026,0.03312 0.87314,1.354363 -0.101962,1.284393 -0.05792,1.36331 0.852483,1.527526 0.793942,0.14321 0.957817,0.324081 0.947385,1.045637 -0.01648,1.140053 0.237104,1.101648 1.749829,-0.265007 1.15671,-1.045018 1.3974,-1.129558 2.96092,-1.04 1.49075,0.08539 1.71465,0.187588 1.80496,0.823846 0.11108,0.78267 -1.148,2.522714 -2.30269,3.182296 -0.37422,0.213763 -1.5444,0.395968 -2.600404,0.4049 -1.056,0.0089 -2.136,0.155829 -2.4,0.326439 -0.387056,0.250136 -0.338595,0.311149 0.250278,0.3151 0.401651,0.0027 1.239031,0.217471 1.860842,0.47728 1.008284,0.421286 1.119664,0.585694 1.029724,1.52 -0.092,0.955533 -0.18523,1.03863 -1.060844,0.945345 -0.528,-0.05625 -1.788,-0.08676 -2.8,-0.06779 -1.621984,0.0304 -1.84,-0.03936 -1.84,-0.588761 0,-0.595312 -0.0753,-0.603201 -1.68,-0.176009 -0.924,0.245981 -2.089482,0.448947 -2.589958,0.451036 -0.609652,0.0026 -0.960352,0.1965 -1.062653,0.587706 -0.08398,0.321149 -0.682503,0.767736 -1.330042,0.992416 -1.534368,0.532387 -5.261881,2.753096 -6.01151,3.581428 -0.569072,0.628815 -0.567776,0.682588 0.04388,1.818719 0.411661,0.764653 0.963274,1.265536 1.590285,1.444029 0.528,0.150307 1.824,0.69535 2.88,1.211206 1.056,0.515853 2.388,1.025751 2.96,1.133104 1.20296,0.225776 1.303686,0.72322 0.535302,2.643604 -0.388179,0.970157 -0.422518,1.414918 -0.148742,1.926477 0.195776,0.365811 0.462851,0.66511 0.593498,0.66511 0.710867,0 1.672774,-1.153494 2.14334,-2.570234 0.486803,-1.465628 0.701581,-1.694121 2.396765,-2.549849 2.249571,-1.135581 3.199837,-2.350944 3.199837,-4.092513 0,-1.003846 0.168669,-1.384314 0.795885,-1.795281 0.437734,-0.286816 1.086207,-1.090563 1.441047,-1.786104 0.8756,-1.716313 1.61266,-2.047553 4.04975,-1.819974 3.31576,0.309631 4.7125,1.319738 4.54314,3.285546 -0.16528,1.918316 0.60781,2.111906 2.69452,0.674738 1.8155,-1.250384 2.62108,-1.462819 2.88998,-0.762094 0.0895,0.23333 0.26849,1.411214 0.39767,2.617525 0.12919,1.206307 0.50631,2.806886 0.83805,3.556841 0.53168,1.201949 0.74076,1.375277 1.76415,1.462474 2.18204,0.185923 2.25746,2.258202 0.13426,3.689024 -0.74904,0.504784 -0.90812,0.729901 -0.51577,0.729901 0.45957,0 0.53089,0.182157 0.37549,0.959123 -0.17248,0.862407 -0.0809,1.005485 0.90861,1.418912 1.13886,0.475844 1.82215,1.851028 1.21928,2.453898 -0.86821,0.868218 -7.77606,0.678317 -7.77606,-0.213766 0,-0.247991 0.75205,-1.164483 1.67121,-2.03665 0.91917,-0.872163 1.59699,-1.659987 1.50626,-1.750714 -0.0907,-0.09073 -1.04967,0.04143 -2.13099,0.293687 -1.08131,0.252253 -3.09113,0.43687 -4.46625,0.410259 -1.56547,-0.0303 -2.85915,0.118736 -3.46023,0.398614 l -0.96,0.447002 1.36,0.108218 c 1.63801,0.130339 1.79503,0.785305 0.54455,2.271417 l -0.81545,0.969104 0.65545,0.65545 c 0.70931,0.709312 0.8536,0.74528 2.65545,0.661981 2.14733,-0.09927 1.21833,1.524605 -1.2,2.097571 -0.528,0.125098 -1.6559,0.575306 -2.50645,1.000464 -1.98325,0.991357 -2.93809,0.891795 -2.92094,-0.304569 0.007,-0.484 -0.0147,-0.88 -0.0481,-0.88 -0.0334,0 -1.29909,0.569408 -2.81261,1.26535 -1.72327,0.792384 -2.751862,1.45024 -2.751862,1.76 0,0.827789 -1.185328,1.741597 -2.779901,2.143114 -0.831718,0.20943 -1.95049,0.786733 -2.486157,1.282899 -0.535667,0.496163 -1.477942,1.23112 -2.093942,1.633239 -0.616,0.402115 -1.264,1.058521 -1.44,1.458681 -0.19585,0.445293 -0.523158,0.674816 -0.843648,0.591603 -0.42505,-0.110358 -0.55055,0.188461 -0.666531,1.587041 -0.1616,1.948691 -0.878151,2.939305 -2.768663,3.827619 -1.979753,0.93024 -5.098291,3.313194 -5.780486,4.417008 -0.604995,0.978899 -0.625593,1.246387 -0.293891,3.816013 0.440864,3.415236 0.05779,4.791194 -1.290214,4.634269 -1.057156,-0.123065 -1.70553,-1.416841 -1.892749,-3.776835 -0.160515,-2.023383 -0.753706,-2.88 -1.994333,-2.88 -0.479229,0 -1.388285,-0.216 -2.020128,-0.48 -1.632525,-0.682112 -2.072064,-0.609018 -3.126704,0.51998 -0.843433,0.902897 -1.061097,0.979677 -2.24198,0.790849 -0.719319,-0.115024 -1.704045,-0.414013 -2.188276,-0.66442 -0.789388,-0.408208 -0.99271,-0.390989 -1.966409,0.166538 -0.597293,0.342 -1.892986,1.046467 -2.879312,1.565482 -1.941722,1.021747 -1.885894,0.929939 -3.353171,5.514489 -0.828983,2.590177 -0.861082,2.890826 -0.487082,4.562033 0.279597,1.249373 0.730397,2.139024 1.494301,2.948998 1.007193,1.067939 1.205968,1.147258 2.507369,1.000573 1.75368,-0.197664 3.245178,-1.227491 3.963556,-2.736698 0.608464,-1.278294 1.806563,-1.776509 3.860249,-1.605238 1.62272,0.135328 1.637357,0.847827 0.0883,4.29879 -1.835011,4.088001 -1.935405,3.795322 1.302444,3.797098 1.760016,9.6e-4 2.926586,0.144973 3.174327,0.391853 0.308899,0.307827 0.290099,1.069741 -0.08894,3.604743 l -0.480627,3.214412 0.752406,1.10727 c 0.994967,1.46422 1.749431,1.85035 2.820074,1.44329 1.265209,-0.48103 3.282915,-0.38539 4.172982,0.19781 0.930275,0.60954 1.471002,0.30485 2.297414,-1.29455 0.619216,-1.1984 1.313658,-1.75964 2.193946,-1.77313 0.365318,-0.006 1.002419,-0.37018 1.415779,-0.810171 1.014269,-1.079642 2.88,-1.141834 2.88,-0.096 0,0.547551 0.08533,0.618661 0.384,0.32 0.650016,-0.650016 2.371558,-0.447392 3.375392,0.397271 1.49143,1.25496 7.298953,2.20022 7.664537,1.24752 0.0905,-0.23584 0.509136,-0.42879 0.930308,-0.42879 0.467344,0 0.765763,-0.18706 0.765763,-0.48 0,-0.26401 -0.216,-0.48001 -0.48,-0.48001 -0.266666,0 -0.48,-0.284436 -0.48,-0.639991 0,-0.352 0.144,-0.64 0.32,-0.64 0.176,0 0.32,-0.288 0.32,-0.64 0,-0.352 0.144,-0.64 0.32,-0.64 0.176,0 0.32,-0.276 0.32,-0.613335 0,-0.337331 0.166739,-0.668912 0.370539,-0.736844 0.62753,-0.209178 -6.4e-4,-1.840817 -0.859368,-2.232068 -1.168768,-0.532528 -1.003002,-1.217753 0.294592,-1.217753 1.109466,0 1.474236,0.402355 1.474236,1.626172 0,0.337604 0.144,0.613828 0.32,0.613828 0.176,0 0.32,0.288 0.32,0.64 0,0.355555 -0.21334,0.64 -0.48,0.64 -0.26667,0 -0.48,0.284445 -0.48,0.64 0,0.352 -0.144,0.64 -0.32,0.64 -0.176,0 -0.32,0.288 -0.32,0.64 0,0.352 -0.144,0.64 -0.319999,0.64 -0.176,0 -0.32,0.288 -0.32,0.64 0,0.426666 0.213334,0.639991 0.639999,0.639991 0.35555,0 0.64,0.21334 0.64,0.48001 0,0.264 -0.19922,0.48 -0.4427,0.48 -0.24348,0 -0.52431,0.396 -0.624067,0.88 -0.135872,0.65921 -0.0047,1.0266 0.522687,1.46432 1.36473,1.13259 1.99014,1.76621 2.57823,2.61206 0.90402,1.30024 2.41932,2.08084 4.04585,2.0842 3.25036,0.007 5.37469,1.45901 6.08421,4.15942 0.2081,0.792 0.52621,1.62035 0.70692,1.84079 0.1807,0.22044 0.24396,0.82371 0.14059,1.34061 -0.17411,0.87052 -0.11216,0.94715 0.84016,1.03921 0.68163,0.0659 1.129,0.32909 1.32746,0.78098 0.24803,0.56476 0.49909,0.65479 1.4647,0.52528 1.61774,-0.21699 3.83596,0.91368 3.83596,1.95525 0,0.62077 0.13324,0.72366 0.77761,0.60047 0.42769,-0.0818 1.991,0.0128 3.47401,0.21018 2.48565,0.33077 2.80003,0.45741 4.02235,1.62017 0.74564,0.70931 1.92117,1.43154 2.68599,1.65022 1.86392,0.53297 2.09831,0.76672 2.3321,2.32575 0.28507,1.90094 -0.32538,3.83904 -1.79461,5.69776 -0.6916,0.87494 -1.25745,1.70824 -1.25745,1.85178 0,0.14355 -0.49057,0.84816 -1.09015,1.56582 -1.02829,1.23078 -1.08074,1.40954 -0.92421,3.15027 0.19171,2.13209 -0.57704,6.68602 -1.5451,9.15277 -0.8848,2.25461 -1.72633,3.09269 -3.10545,3.09269 -1.23863,0 -3.8716,1.15958 -5.31952,2.34275 -0.86119,0.70373 -0.94634,0.95203 -0.96619,2.81729 -0.0163,1.53044 -0.20151,2.3364 -0.73557,3.20052 -0.3926,0.63524 -0.71381,1.48439 -0.71381,1.887 0,0.40262 -0.33195,1.17762 -0.73766,1.72223 -0.40572,0.54461 -1.15115,1.71021 -1.65651,2.59021 -1.26336,2.19991 -1.63486,2.43943 -3.57638,2.30582 l -1.65054,-0.11359 0.61054,1.13914 c 1.44338,2.69304 0.32275,4.45151 -3.06945,4.81648 -1.57665,0.16964 -1.59851,0.18703 -1.49799,1.19206 0.0561,0.56095 -0.0658,1.33353 -0.27098,1.71684 -0.3061,0.57197 -0.56825,0.66525 -1.46201,0.52021 -1.28446,-0.20844 -1.41036,0.19774 -0.28902,0.93247 0.81108,0.53144 1.06445,1.52936 0.48,1.89057 -0.176,0.10877 -0.32,0.56256 -0.32,1.00841 0,0.44585 -0.29935,1.1912 -0.66521,1.65632 l -0.66521,0.84568 0.99385,0.88801 c 1.38381,1.23643 1.56072,2.47117 0.63672,4.44395 -0.6151,1.31327 -0.6801,1.70814 -0.3644,2.21367 0.21134,0.3384 0.38425,0.90523 0.38425,1.25962 0,0.41296 0.212,0.64434 0.59038,0.64434 0.32472,0 1.45677,0.55996 2.51567,1.24436 1.05889,0.6844 2.23322,1.34211 2.60961,1.46157 1.36163,0.43216 0.74021,1.03706 -1.2826,1.24848 -2.3849,0.24927 -2.72814,0.22908 -3.95306,-0.23259 z M 77.219656,53.970883 c 0.562736,-1.153543 1.281779,-2.077194 1.92,-2.466343 0.56119,-0.342179 0.876342,-0.622144 0.700342,-0.622144 -0.858064,0 -2.421725,1.397674 -3.319856,2.967443 -1.099501,1.921725 -1.197558,2.262292 -0.600144,2.084369 0.22,-0.06552 0.804848,-0.949018 1.299658,-1.963325 z m 6.320489,-1.208528 c 0.178515,-0.333556 0.665917,-0.602352 1.092227,-0.602352 1.012061,0 1.246756,-0.436244 0.56008,-1.041063 -0.838416,-0.738467 -2.632454,-0.374963 -2.632454,0.533383 0,0.384822 -0.160253,0.859932 -0.356118,1.055798 -0.466615,0.466614 -0.07855,1.075798 0.535257,0.840259 0.263251,-0.101021 0.623706,-0.454733 0.801008,-0.786025 z m -1.44158,-2.172311 c -0.09856,-0.159478 -0.46706,-0.214681 -0.818887,-0.122678 -0.880496,0.230256 -0.801289,0.412637 0.179207,0.412637 0.450387,0 0.738243,-0.13048 0.63968,-0.289959 z m -4.818567,-1.698717 c 0.704,0.01802 1.964,0.127357 2.8,0.242951 1.714368,0.237043 1.981066,-0.173984 0.943936,-1.454784 -0.542073,-0.669431 -0.679309,-0.689978 -2.325565,-0.348218 -0.962227,0.199757 -2.322995,0.729971 -3.023936,1.178253 -0.890316,0.569398 -1.033312,0.744825 -0.474435,0.582038 0.44,-0.12816 1.376,-0.218269 2.08,-0.20024 z M 38.618594,46.020002 c -0.10215,-0.255273 -0.177977,-0.179449 -0.193331,0.193335 -0.01389,0.337331 0.06173,0.526333 0.168071,0.42 0.106332,-0.106336 0.117699,-0.382336 0.02525,-0.613335 z M 95.679998,24.800001 c 0.326262,-0.393122 0.304397,-0.48 -0.120819,-0.48 -0.285549,0 -0.519181,0.216 -0.519181,0.48 0,0.264 0.05437,0.48 0.120819,0.48 0.06645,0 0.30008,-0.216 0.519181,-0.48 z M 77.363422,20.854144 c -0.785088,-0.134395 -0.951104,0.03714 -0.691273,0.714248 0.192185,0.500829 0.24719,0.498349 0.758432,-0.0342 0.522422,-0.544194 0.518912,-0.579722 -0.06716,-0.680049 z M 379.51999,185.12001 c 0,-0.264 0.15251,-0.48 0.33888,-0.48 0.1864,0 0.24483,-0.15219 0.12989,-0.33819 -0.4271,-0.69104 0.18771,-1.79322 1.37133,-2.45845 0.6712,-0.37723 2.40467,-1.18535 3.85216,-1.79583 1.44749,-0.61048 3.62051,-1.84291 4.82889,-2.73874 1.20842,-0.89584 2.40272,-1.62879 2.65399,-1.62879 0.72208,0 1.22486,0.68915 1.22486,1.67888 0,0.69281 -0.24115,1.04139 -1.00726,1.456 -0.55402,0.29982 -1.47303,0.94112 -2.04224,1.42512 -0.56925,0.484 -1.26755,0.88 -1.55181,0.88 -0.28426,0 -1.05725,0.48497 -1.71776,1.07771 -1.7439,1.56497 -3.66506,2.44229 -5.34819,2.44229 -1.07799,0 -1.45274,0.12382 -1.45274,0.48 0,0.26666 -0.28445,0.48 -0.64,0.48 -0.35555,0 -0.64,-0.21334 -0.64,-0.48 z m -21.97974,-5.16031 c -0.10983,-0.28618 -0.0333,-0.9804 0.17005,-1.54272 0.20332,-0.56233 0.36969,-1.35503 0.36969,-1.76156 0,-0.67606 0.10243,-0.72222 1.2,-0.5408 0.66,0.10909 1.74,0.19993 2.4,0.20187 1.03219,0.003 1.19901,0.1042 1.1929,0.72352 -0.0205,2.05836 -4.68346,4.61146 -5.33264,2.91969 z m 37.01974,-2.96051 c 0,-0.33045 0.216,-0.78008 0.48,-0.99918 0.264,-0.2191 0.48,-0.89143 0.48,-1.49407 0,-0.89185 0.18307,-1.19711 0.98397,-1.64081 2.0407,-1.13057 2.0359,-1.12214 1.95129,-3.41371 -0.0762,-2.06435 -0.0534,-2.13541 0.65287,-2.03522 0.6199,0.0879 0.74752,0.32405 0.83414,1.54323 0.11709,1.64765 0.78285,2.56058 1.86733,2.56058 0.58122,0 0.7504,0.17522 0.7504,0.77714 0,0.75587 -0.7336,1.78286 -1.27354,1.78286 -0.14729,0 -1.03699,0.62494 -1.97712,1.38875 -2.11148,1.71548 -2.87782,2.13125 -3.92832,2.13125 -0.58985,0 -0.82102,-0.16918 -0.82102,-0.60082 z m -33.52205,-3.28923 c -0.20352,-0.20353 -1.13712,-0.39295 -2.07462,-0.42094 -1.0305,-0.0307 -2.11898,-0.29566 -2.75242,-0.66983 -0.93363,-0.55152 -1.03987,-0.75842 -0.97504,-1.89907 0.137,-2.41107 0.0523,-2.64822 -0.88198,-2.46962 -0.76998,0.14719 -0.83158,0.0856 -0.68438,-0.68437 0.18041,-0.94372 -0.10704,-1.09205 -0.70951,-0.36612 -0.65149,0.78498 -1.14832,0.55644 -1.76544,-0.81206 -0.32045,-0.71063 -1.15081,-1.70989 -1.84525,-2.22058 -1.11868,-0.82271 -1.44988,-0.90868 -2.90595,-0.7544 -2.41088,0.25545 -5.23542,1.01251 -6.90051,1.84953 -0.82227,0.41335 -2.42678,0.8365 -3.66416,0.96633 -1.21075,0.12703 -3.15475,0.59079 -4.32,1.03057 -2.20586,0.83251 -4.07626,0.86617 -5.01123,0.0902 -0.52211,-0.43332 -0.64183,-1.90958 -0.15485,-1.90958 0.17197,0 0.55046,-0.36297 0.84115,-0.80659 0.43629,-0.6659 0.54784,-1.92852 0.63936,-7.23843 0.1441,-8.35733 0.0681,-8.18855 4.54099,-10.08116 1.81175,-0.7666 3.65492,-1.39382 4.09591,-1.39382 1.60752,0 3.37869,-1.37821 4.42077,-3.44 0.37984,-0.7515 0.74531,-1.04 1.31744,-1.04 0.43548,0 0.79177,-0.14061 0.79177,-0.31246 0,-0.17186 0.684,-1.0271 1.52,-1.90054 2.18839,-2.28638 4.20839,-2.89954 5.36,-1.627 0.73424,0.81134 1.44,0.82337 1.44,0.0245 0,-0.76502 1.49331,-2.58455 2.12119,-2.58455 0.25539,0 1.02883,-0.288 1.71881,-0.64 1.50765,-0.76915 2.24595,-0.7938 4.42192,-0.14761 1.35379,0.40204 1.65677,0.62225 1.65098,1.2 -0.004,0.38918 -0.28874,1.06761 -0.6329,1.50761 -1.02313,1.30802 -0.79433,1.79494 1.65018,3.51166 1.25961,0.88459 2.39936,1.60834 2.53277,1.60834 0.1334,0 0.75881,-0.7033 1.38979,-1.56288 0.8359,-1.13869 1.15107,-1.89863 1.16128,-2.8 0.008,-0.68042 0.25968,-1.95712 0.56,-2.83712 0.45641,-1.33749 0.67494,-1.6 1.3319,-1.6 0.65466,0 0.85456,0.23703 1.19683,1.41916 0.22599,0.78054 0.7665,1.79036 1.20116,2.24403 0.93264,0.97347 1.6094,3.72954 1.33587,5.44017 -0.16298,1.01927 -0.0601,1.3107 0.72982,2.06752 0.50576,0.48454 1.38778,1.91332 1.96007,3.17506 0.57225,1.26173 1.61849,3.05629 2.32499,3.9879 l 1.28454,1.69384 -0.37696,3.06732 c -0.44304,3.60503 -1.78611,6.40011 -3.92115,8.16026 -0.71034,0.58561 -1.74819,1.53446 -2.3063,2.10857 -3.72183,3.82837 -5.01479,5.25372 -5.01479,5.52826 0,0.17219 -0.64019,0.28886 -1.42262,0.25927 -1.10029,-0.0416 -1.67552,0.13907 -2.53866,0.79741 -1.19827,0.91397 -2.08822,1.07371 -2.68077,0.48118 z M 204.8,166.72001 c -0.42163,-0.42163 -0.64,-1.06667 -0.64,-1.89047 0,-1.37801 -1.13934,-3.86856 -2.76502,-6.04426 -0.82584,-1.10524 -1.06812,-1.79526 -1.23594,-3.52 -0.3149,-3.23614 -1.3363,-6.68035 -2.72963,-9.20445 -2.08625,-3.77935 -2.0193,-6.82157 0.24543,-11.15318 l 0.8221,-1.57236 -0.57217,-1.68328 c -0.31469,-0.9258 -0.49642,-1.97292 -0.40384,-2.32694 0.0926,-0.35401 -0.0488,-0.95364 -0.31416,-1.3325 -0.26537,-0.37886 -0.74336,-1.55046 -1.06221,-2.60355 -0.41099,-1.3574 -1.0016,-2.36572 -2.02911,-3.46422 -1.75778,-1.8792 -2.0258,-2.80545 -1.47948,-5.11288 0.23074,-0.97455 0.43404,-2.34791 0.45178,-3.05191 0.0306,-1.21435 -0.0129,-1.27473 -0.84775,-1.1771 -0.70992,0.083 -0.88,-0.0252 -0.88,-0.56 0,-0.3646 0.18,-0.66801 0.4,-0.67425 0.22,-0.006 0.0556,-0.20224 -0.36543,-0.43557 -0.44664,-0.24754 -1.31293,-0.36282 -2.08,-0.27679 -1.22792,0.13772 -1.33886,0.0827 -1.68306,-0.83458 -0.23538,-0.62728 -0.79334,-1.18461 -1.54463,-1.54288 -1.17456,-0.56011 -1.18085,-0.55922 -4.65842,0.66198 -2.96729,1.042 -3.71606,1.19069 -5.06315,1.00542 -1.10125,-0.15146 -2.17842,-0.0498 -3.55045,0.33521 -3.00111,0.84206 -4.70901,0.35533 -7.45754,-2.12532 -1.38073,-1.24616 -2.23804,-2.29741 -2.42461,-2.97311 -0.34315,-1.24277 -3.1252,-5.00302 -3.70153,-5.00302 -0.5987,0 -1.17174,-1.286891 -1.13993,-2.559995 0.0154,-0.616 -0.07,-1.59368 -0.18981,-2.172624 -0.15428,-0.745687 -0.0732,-1.212404 0.27811,-1.600586 1.28464,-1.41951 1.59146,-4.103763 0.67225,-5.881312 -0.68643,-1.327408 -0.36334,-3.368612 0.78494,-4.959066 0.48699,-0.674528 1.36417,-2.126714 1.94929,-3.227082 0.59278,-1.114774 1.71701,-2.564074 2.53891,-3.27303 0.81128,-0.699796 2.08706,-1.798208 2.83506,-2.440916 0.88262,-0.758377 1.36,-1.432496 1.36,-1.920496 0,-1.571849 0.93489,-3.14575 2.43067,-4.092051 0.8058,-0.509786 1.77655,-1.407943 2.15721,-1.995901 0.77035,-1.189847 1.83917,-1.406519 2.9837,-0.604858 1.11158,0.778583 2.38978,0.665536 4.26842,-0.377507 2.46289,-1.36743 4.4569,-1.781328 7.29884,-1.515018 1.8666,0.174916 2.72151,0.101511 4.04088,-0.346953 2.43434,-0.827459 3.2512,-0.528775 3.52371,1.288445 0.11937,0.796028 0.13505,1.705654 0.0348,2.021389 -0.2961,0.93294 1.32819,2.177312 3.44893,2.64224 1.48942,0.326521 2.03124,0.624406 2.67798,1.472333 0.44593,0.584646 1.0457,1.069312 1.33281,1.077036 0.28711,0.0077 1.05671,0.204932 1.71022,0.438237 1.05042,0.375002 1.24522,0.361175 1.68,-0.119245 0.27049,-0.298886 0.4918,-0.844313 0.4918,-1.21206 0,-1.407143 0.31983,-1.680977 1.96336,-1.680977 1.0902,0 2.13835,0.2808 3.40576,0.912407 1.00698,0.501824 2.69488,1.066662 3.75088,1.25519 2.29631,0.409968 8.66096,0.342026 9.0912,-0.09705 0.4044,-0.412704 1.30879,-4.387085 1.30879,-5.751521 0,-1.324262 -0.25536,-1.51166 -1.28401,-0.942291 -0.43779,0.242323 -0.61599,0.44569 -0.39599,0.451923 0.66308,0.01882 0.44983,1.220154 -0.3112,1.753197 -0.39116,0.273978 -1.03916,0.498144 -1.44,0.498144 -1.01911,0 -1.0262,-1.4252 -0.009,-1.767827 0.6775,-0.228157 0.6642,-0.250877 -0.22524,-0.38487 -0.51988,-0.07832 -1.23007,-0.341904 -1.57819,-0.585741 -0.46709,-0.327165 -0.74428,-0.350938 -1.05782,-0.09073 -0.24015,0.199309 -0.98003,0.278148 -1.70181,0.181338 -0.96456,-0.129373 -1.27693,-0.0613 -1.27693,0.278278 0,0.247252 -0.288,0.449549 -0.64,0.449549 -0.35556,0 -0.64,-0.213334 -0.64,-0.48 0,-0.264 0.15445,-0.48 0.34322,-0.48 0.18878,0 0.0448,-0.379421 -0.32,-0.843155 -0.36477,-0.463734 -0.66322,-1.161418 -0.66322,-1.550403 0,-0.388989 -0.29868,-0.977546 -0.66373,-1.307908 -0.42446,-0.384134 -0.61315,-0.865161 -0.52345,-1.334406 0.18476,-0.96649 -1.12584,-1.366839 -1.97092,-0.602054 -0.31476,0.28486 -0.82496,0.517926 -1.13377,0.517926 -0.32431,0 -0.49141,0.168957 -0.39559,0.4 0.80607,1.943821 0.91466,2.769354 0.49037,3.727895 -0.55315,1.249664 -1.58548,1.311177 -2.49969,0.14895 -0.81033,-1.030173 -0.8543,-1.939984 -0.10322,-2.136259 0.33872,-0.08852 0.20652,-0.161012 -0.33455,-0.183466 -1.26339,-0.05243 -2.46545,-1.354883 -2.46545,-2.671373 0,-1.689587 -1.40202,-3.445747 -2.75089,-3.445747 -0.38971,0 -1.31181,-0.504 -2.04911,-1.12 -0.73731,-0.616 -1.53787,-1.12 -1.77902,-1.12 -0.24116,0 -0.60087,-0.30346 -0.79937,-0.674356 -0.26024,-0.486259 -0.45809,-0.577168 -0.70934,-0.32592 -0.5057,0.505703 3.71947,4.483453 5.79485,5.455508 1.93828,0.907846 2.30772,1.944768 0.69288,1.944768 -0.87273,0 -0.96,0.096 -0.96,1.056 0,1.158848 -0.47553,1.824 -1.304,1.824 -0.33956,0 -0.60637,0.35184 -0.728,0.96 -0.11518,0.575882 -0.39237,0.96 -0.69275,0.96 -0.85092,0 -3.03525,-1.266889 -3.03525,-1.760406 0,-0.607879 1.309,-0.925412 2.7221,-0.660311 1.02602,0.19248 1.1179,0.14632 1.1179,-0.561629 0,-1.136579 -1.0748,-2.309273 -3.13458,-3.420102 -2.32331,-1.252947 -3.06071,-1.873463 -3.70347,-3.116426 -0.28457,-0.550298 -0.64659,-1.080387 -0.80449,-1.177974 -0.1579,-0.09759 -0.94233,0.188793 -1.74319,0.6364 -1.09166,0.610137 -1.84689,0.795997 -3.01747,0.742582 -1.86097,-0.08491 -2.3168,0.142371 -2.3168,1.155187 0,0.444538 -0.23404,0.833828 -0.56429,0.93865 -1.06002,0.336435 -3.54275,2.898861 -3.75025,3.870624 -0.43711,2.047047 -1.64086,3.049245 -4.0865,3.402256 -0.92343,0.133293 -2.14095,0.336292 -2.7056,0.451108 -0.75392,0.153302 -1.31649,0.02963 -2.11777,-0.4656 -0.60013,-0.370896 -1.48588,-0.674359 -1.96834,-0.674359 h -0.87721 l 0.18589,-2.32 c 0.43164,-5.387309 0.6149,-6.821581 0.91997,-7.2 0.40359,-0.500644 1.56982,-0.504253 4.95139,-0.01533 3.04377,0.440086 3.46401,0.253488 3.91305,-1.737533 0.37923,-1.68145 -0.26856,-2.91689 -1.86421,-3.555341 -1.0517,-0.42081 -1.31613,-0.687872 -1.31613,-1.329207 0,-0.71631 0.13102,-0.802592 1.21883,-0.802592 0.67037,0 1.49837,-0.211421 1.84,-0.469824 0.34164,-0.2584 1.03157,-0.4744 1.53317,-0.48 0.60688,-0.0068 1.2867,-0.38488 2.032,-1.130176 0.616,-0.616 1.23768,-1.12 1.38152,-1.12 0.14383,0 1.22774,-0.792 2.40868,-1.76 1.62497,-1.331962 2.40014,-1.76 3.1873,-1.76 1.43747,0 1.7782,-0.539014 1.55138,-2.45416 -0.1664,-1.40504 -0.097,-1.695725 0.54864,-2.297213 1.09636,-1.021415 1.89848,-0.906759 1.89848,0.271373 0,0.976925 0.19245,1.111654 1.09382,0.765763 0.69983,-0.268547 0.63199,-0.764538 -0.25642,-1.874896 -0.69421,-0.867648 -0.83273,-0.915725 -1.61346,-0.56 -1.14074,0.519753 -3.08201,0.476256 -3.8241,-0.08569 -0.56256,-0.42599 -1.11434,-2.310057 -1.14591,-3.912715 -0.0181,-0.916921 1.0992,-1.942865 2.53758,-2.330181 1.25864,-0.338917 5.12849,-3.014393 5.12849,-3.545656 0,-0.184818 0.85384,-1.195188 1.89742,-2.245268 1.90067,-1.912514 2.2788,-2.1098 7.06258,-3.684889 1.00243,-0.330058 2.41237,-0.440745 4.64,-0.364265 2.65158,0.09104 3.52196,0.257931 5.07866,0.973829 1.03327,0.47518 2.35784,0.863964 2.94349,0.863964 1.17493,0 6.13013,1.467574 6.80358,2.015006 0.23415,0.190339 0.36212,0.678828 0.28437,1.085532 -0.14781,0.773231 0.0203,0.828797 1.36989,0.452763 0.67328,-0.187595 0.78351,-0.385302 0.69589,-1.248103 -0.10186,-1.002923 -0.0758,-1.025198 1.2,-1.025198 0.95776,0 1.30411,0.130149 1.30411,0.490043 0,0.868444 0.88119,0.863128 2.37848,-0.01435 1.52081,-0.89125 5.04187,-1.474713 5.40024,-0.894853 0.23266,0.376453 4.25421,-0.225703 5.24025,-0.784636 0.8982,-0.509143 2.03493,-0.485953 4.42103,0.0902 2.43215,0.587266 3.12074,0.578619 2.00805,-0.02522 -1.01624,-0.551495 -1.52805,-1.382472 -1.52805,-2.480966 0,-0.982866 0.59025,-1.480454 2.03408,-1.714755 1.69644,-0.275294 2.56109,0.0703 3.50899,1.40254 0.74191,1.042727 0.85693,1.108257 0.85693,0.488194 0,-0.617649 0.16962,-0.716198 1.23268,-0.716198 0.80961,0 1.60586,-0.273701 2.32,-0.797473 1.67104,-1.225583 3.02276,-1.762527 4.43705,-1.762527 1.16032,0 1.29027,-0.07996 1.29027,-0.793904 0,-0.564492 0.20806,-0.83826 0.72,-0.947403 3.02998,-0.645976 4.62147,-0.854388 5.97552,-0.78252 1.28475,0.06819 1.77092,-0.0719 2.69468,-0.776487 1.32753,-1.0125595 3.49409,-1.1634945 5.06208,-0.352654 0.6605,0.341559 1.98685,0.528374 4.06411,0.572423 3.37739,0.07162 4.52361,0.504226 4.52361,1.7073 0,0.451502 -0.32075,0.880863 -0.87497,1.171249 -0.84781,0.444212 -0.81552,0.458379 1.04,0.456342 1.05324,-0.0012 3.35497,0.09741 5.11497,0.219028 1.76,0.121623 5,0.200497 7.2,0.175277 4.32314,-0.04956 3.74853,-0.205517 8.01597,2.175689 1.15513,0.644557 1.45748,0.693176 2.25538,0.362677 0.5894,-0.244142 1.5557,-0.302416 2.68173,-0.161728 2.09847,0.262187 3.04692,0.02169 3.04692,-0.772617 0,-0.32131 0.22778,-0.671606 0.50618,-0.778436 1.43951,-0.552393 8.18777,0.320458 10.51974,1.360676 1.36336,0.608137 2.19424,0.713026 5.92,0.747328 3.63562,0.03347 4.54035,0.142735 5.61408,0.678015 1.05616,0.526531 2.00743,0.648715 5.44,0.69874 2.288,0.03334 4.412,0.170618 4.72,0.305052 0.41315,0.180337 0.56,0.09753 0.56,-0.315819 0,-0.505883 0.25616,-0.539237 2.64,-0.343738 3.74915,0.307468 8.47405,1.141979 10.16,1.794458 0.792,0.306513 2.3025,0.662813 3.35667,0.791778 1.05415,0.128965 2.43232,0.497569 3.06263,0.81912 0.79545,0.405802 1.53913,0.531906 2.43126,0.412248 1.44787,-0.1942 2.70887,0.325431 3.90992,1.61122 1.21443,1.300074 0.72765,1.925938 -1.32547,1.704247 -1.53398,-0.165633 -4.04877,-0.786453 -5.43501,-1.34172 -0.42329,-0.169553 -0.56,-0.06544 -0.56,0.426459 0,0.357925 -0.23117,0.697332 -0.51373,0.754237 -0.28252,0.05691 0.47348,0.486775 1.68,0.955268 1.84327,0.715722 2.19373,0.971336 2.19373,1.6 0,0.612034 -0.17472,0.753077 -0.96,0.775017 -1.5536,0.04341 -2.29142,0.410425 -3.18787,1.585725 -0.85181,1.116756 -1.66067,1.360881 -2.68778,0.811193 -0.52492,-0.280935 -3.5063,0.447968 -4.0446,0.988853 -0.42976,0.431801 0.511,1.505209 1.91484,2.184784 0.79498,0.384841 1.44541,0.851097 1.44541,1.036121 0,0.185021 0.31783,0.972791 0.70627,1.750602 0.52599,1.053123 0.6218,1.548173 0.3753,1.938925 -0.21558,0.341802 -0.23142,1.072419 -0.0454,2.095763 0.3719,2.04618 0.18205,2.461213 -1.12592,2.461213 -0.81059,0 -1.23686,-0.225913 -1.7591,-0.932278 -0.37911,-0.512752 -1.35552,-1.410749 -2.16986,-1.995552 -0.81434,-0.584804 -2.12717,-1.923408 -2.91741,-2.974676 -1.49321,-1.98639 -1.55251,-2.315449 -0.81062,-4.497494 0.92822,-2.730102 0.96304,-2.988594 0.49312,-3.65952 -0.62368,-0.890397 -1.06634,-0.832478 -1.06634,0.139519 0,0.691718 -0.14294,0.800001 -1.056,0.800001 -0.5808,0 -1.20253,-0.146513 -1.3816,-0.325585 -0.17904,-0.179072 -0.77635,-0.454867 -1.32729,-0.61288 -1.28736,-0.369205 -1.79671,0.192799 -1.72948,1.908276 0.043,1.095862 -0.0547,1.285363 -0.75225,1.460441 -0.44087,0.110653 -1.26771,0.100087 -1.83747,-0.02349 -0.56976,-0.123564 -2.6673,-0.227664 -4.66122,-0.231337 -3.50944,-0.0065 -3.65421,0.02102 -4.52979,0.859881 -0.49747,0.476605 -1.05949,1.482093 -1.24893,2.23442 -0.18944,0.752323 -0.42339,1.573645 -0.5199,1.825161 -0.30807,0.802794 1.85312,1.577463 3.77734,1.353981 1.53216,-0.177945 1.76922,-0.111696 2.93904,0.821399 0.69987,0.558227 1.32387,0.860777 1.38669,0.672339 0.0628,-0.188442 0.53632,-0.342618 1.05222,-0.342618 0.71824,0 1.08279,0.243684 1.55581,1.04 0.33978,0.572 1.52566,1.69666 2.6353,2.499245 1.48761,1.075959 2.04412,1.685335 2.11878,2.32 0.0596,0.506257 -0.0546,0.860756 -0.27722,0.860756 -0.20819,0 0.14224,0.576416 0.77872,1.280921 0.63648,0.704509 1.15725,1.5772 1.15725,1.939319 0,0.565133 -0.16998,0.644326 -1.2,0.559078 -1.12016,-0.09271 -1.27453,-0.23927 -2.32,-2.202838 -0.616,-1.156935 -1.42566,-2.515597 -1.79923,-3.019245 l -0.67923,-0.915725 0.13993,3.140087 c 0.11949,2.680995 0.0334,3.441904 -0.58883,5.204413 -0.80966,2.293478 -1.42835,2.809827 -3.0512,2.546477 -0.9608,-0.155917 -1.13254,-0.07426 -1.44125,0.685251 -0.19276,0.474246 -0.3198,1.322566 -0.2823,1.885158 0.0491,0.736256 -0.1176,1.138935 -0.59485,1.436976 -0.36467,0.227744 -0.66304,0.503053 -0.66304,0.611799 0,0.108745 0.79706,0.726931 1.77123,1.373744 1.94349,1.290416 3.02573,2.758874 3.02759,4.108083 0,0.695975 -0.25635,1.004884 -1.26608,1.52 -1.88151,0.959882 -2.19827,0.849284 -3.04387,-1.062784 -0.8072,-1.825174 -2.38468,-3.410704 -3.39341,-3.410704 -0.44163,0 -0.61546,-0.223872 -0.61546,-0.792624 0,-0.48865 -0.30153,-0.990189 -0.78624,-1.307786 -0.71869,-0.470899 -0.84851,-0.471532 -1.5112,-0.0074 -1.20608,0.844765 -2.16806,0.660208 -2.3919,-0.458873 -0.28039,-1.401955 -0.70787,-1.488211 -1.76579,-0.356269 -0.51552,0.55161 -1.07402,1.002928 -1.24109,1.002928 -0.57239,0 -0.30387,0.625178 0.49264,1.147082 0.48502,0.317792 1.58403,0.546787 2.81069,0.585654 1.10784,0.0351 2.18947,0.172093 2.40358,0.304426 0.72666,0.449091 0.36925,1.319923 -0.90285,2.199798 -1.40153,0.969424 -1.59769,1.643988 -0.62889,2.16248 0.35142,0.188077 0.91795,0.88882 1.25894,1.557207 0.34099,0.668387 1.14717,1.617373 1.79155,2.108861 0.96794,0.738291 1.1481,1.053597 1.03648,1.814051 -0.10672,0.727322 -0.0125,0.920442 0.44951,0.920442 0.83308,0 0.7591,1.186793 -0.31184,5.001654 -1.1482,4.089975 -2.10925,5.375885 -4.54359,6.079329 -0.968,0.279718 -2.01005,0.636931 -2.31565,0.793798 -0.30563,0.15687 -0.91721,0.285219 -1.3591,0.285219 -0.4687,0 -1.31984,0.466576 -2.0431,1.12 -1.44314,1.303786 -2.00916,1.396336 -2.44628,0.4 -0.17372,-0.396 -0.6256,-0.764144 -1.00412,-0.818096 -0.8745,-0.124643 -2.99175,1.691552 -2.99175,2.566356 0,0.364032 0.81165,1.42391 1.87469,2.448102 2.2559,2.173392 3.50621,4.504432 3.77008,7.028775 0.23818,2.278955 -0.112,3.031275 -1.81546,3.900325 -0.69811,0.35615 -1.26931,0.78301 -1.26931,0.94858 0,0.55901 -1.39533,1.60596 -2.14035,1.60596 -0.63198,0 -0.73965,-0.16303 -0.73965,-1.12 0,-0.93899 -0.11324,-1.12 -0.70067,-1.12 -0.41358,0 -1.31073,-0.6228 -2.18959,-1.52 -0.81891,-0.836 -1.923,-1.837883 -2.45353,-2.226404 l -0.96459,-0.706404 -0.20631,2.440648 c -0.15944,1.88614 -0.10281,2.55556 0.24926,2.94641 0.25056,0.27816 0.55402,0.90023 0.67434,1.38238 0.13291,0.53253 0.96173,1.47457 2.11157,2.4 1.75373,1.41145 1.95107,1.70678 2.68615,4.01989 1.09066,3.43197 1.06194,4.06347 -0.18477,4.06347 -0.94688,0 -0.96223,0.0227 -0.48,0.7112 0.27398,0.39116 0.49814,0.91601 0.49814,1.16632 0,0.25032 0.29245,0.75828 0.64989,1.1288 2.00973,2.0833 2.65155,3.1517 2.79594,4.65421 0.12198,1.26952 0.0275,1.66598 -0.52868,2.22232 -0.74272,0.74273 -1.65629,0.86068 -2.62998,0.33958 -1.19603,-0.6401 -2.88983,-2.70769 -3.78675,-4.62243 -0.49467,-1.056 -1.36394,-2.496 -1.93173,-3.2 -0.56778,-0.704 -1.29381,-1.784 -1.6134,-2.4 -0.31958,-0.616 -1.18113,-1.696 -1.91455,-2.4 -1.3937,-1.3378 -2.24074,-2.66241 -2.24074,-3.50411 0,-1.13825 3.57198,-0.10007 5.03154,1.4624 0.39135,0.41894 1.15381,1.24724 1.69436,1.84068 1.21985,1.33919 1.515,1.13341 0.69987,-0.48796 -0.34038,-0.67706 -0.79711,-1.98836 -1.01496,-2.91401 -0.32119,-1.36479 -0.66955,-1.91676 -1.84244,-2.91931 l -1.44635,-1.23631 0.32614,-2.79808 c 0.29058,-2.493003 0.26265,-2.9074 -0.25621,-3.800696 -0.3203,-0.551437 -0.82546,-1.866611 -1.12258,-2.922611 -0.66973,-2.380263 -0.84792,-2.57929 -1.58253,-1.767562 -0.64942,0.717603 -2.06835,0.858048 -2.66284,0.263562 -0.2112,-0.2112 -0.384,-0.791988 -0.384,-1.290637 0,-1.387581 -1.46331,-3.998247 -2.55852,-4.564599 -0.52536,-0.271673 -1.24255,-1.057216 -1.59376,-1.745648 -0.35122,-0.688432 -0.74945,-1.320224 -0.88498,-1.403981 -0.32669,-0.201907 -3.97243,0.726743 -4.48274,1.14185 -0.22,0.17896 -0.4,0.662682 -0.4,1.074938 0,0.452342 -0.28549,0.898972 -0.72,1.126364 -0.5662,0.29632 -3.18076,2.846657 -4.65667,4.542285 -0.12283,0.141117 -0.72733,0.665828 -1.34333,1.166029 -1.03875,0.843482 -1.12238,1.045392 -1.15285,2.783428 -0.10807,6.164548 -2.00349,9.507408 -4.60217,8.116638 -0.32613,-0.17454 -0.69216,-0.76901 -0.81341,-1.32105 -0.12124,-0.55203 -0.76472,-2.17323 -1.42993,-3.60266 -0.66521,-1.429427 -1.7464,-3.750957 -2.40265,-5.158957 -1.48849,-3.193645 -2.06456,-5.26097 -2.09547,-7.520001 -0.0189,-1.381795 -0.0863,-1.60528 -0.31349,-1.04 -0.24044,0.598189 -0.53477,0.72 -1.73972,0.72 -1.02364,0 -1.63859,-0.188281 -2.09031,-0.64 -0.71942,-0.719421 -0.84537,-1.783795 -0.24,-2.02807 0.22,-0.08877 0.10172,-0.172771 -0.26285,-0.186666 -0.36457,-0.01389 -1.45222,-0.783728 -2.41699,-1.710736 l -1.75415,-1.685475 -3.983,0.07182 c -4.58806,0.08273 -7.2407,-0.288004 -7.85535,-1.097872 -0.3894,-0.513066 -0.4282,-0.484535 -0.43748,0.321702 -0.008,0.664326 0.24889,1.037782 1.02982,1.499235 2.62756,1.552612 3.44,2.35128 3.44,3.381664 0,0.667255 -0.27812,1.262439 -0.83114,1.778618 -0.45712,0.426679 -1.1111,1.321754 -1.45328,1.989056 -0.86035,1.677847 -2.99943,3.746464 -3.87558,3.74792 -0.90075,0.0016 -2.65504,1.050023 -3.0775,1.839405 -0.1751,0.327165 -0.79629,0.83313 -1.38043,1.124365 -3.80468,1.896915 -6.99773,3.148893 -8.47323,3.322311 -1.95738,0.230051 -2.15367,0.656976 -0.88528,1.925371 0.7307,0.73071 0.995,0.80081 2.34423,0.62183 1.7132,-0.22726 4.16511,-0.87418 5.7,-1.503902 0.56528,-0.231917 1.12945,-0.320006 1.25371,-0.195754 0.12425,0.124256 0.2793,0.981756 0.34455,1.905556 0.11158,1.57968 -0.0297,1.95794 -2.37371,6.35667 -2.38967,4.48439 -2.59418,4.75872 -4.96462,6.65977 -1.35976,1.09049 -2.79437,2.43505 -3.18803,2.98789 -0.39366,0.55284 -1.62453,2.0142 -2.73528,3.24747 -3.13341,3.47903 -3.50677,5.87582 -1.52462,9.78741 0.55249,1.09028 0.80518,2.07029 0.76667,2.97336 -0.0316,0.74088 0.0414,2.13906 0.16231,3.10706 0.30869,2.47228 -0.5719,3.95332 -3.17462,5.33929 -1.05278,0.56061 -2.12053,1.35261 -2.37277,1.76 -0.25225,0.40739 -0.96375,1.27895 -1.58113,1.9368 l -1.1225,1.1961 0.54113,1.13476 c 1.14386,2.39871 0.56988,4.28338 -1.64659,5.40655 -1.80123,0.91275 -2.05006,1.34744 -1.77085,3.0935 0.17595,1.10036 0.0958,1.33883 -0.64668,1.92283 -0.46615,0.36667 -1.04929,1.04996 -1.29586,1.51842 -0.85645,1.62715 -4.78728,5.38788 -6.57889,6.29422 -1.56559,0.79199 -1.92213,0.85718 -3.22769,0.59009 -1.03629,-0.212 -1.92985,-0.18043 -3.04,0.10742 -2.21503,0.57432 -3.23447,0.51786 -3.97231,-0.21998 z m 32.24016,-71.360005 c -0.21412,-1.36552 -0.57364,-2.3548 -1.04663,-2.88 -0.39626,-0.44 -0.94339,-1.232 -1.21584,-1.76 -0.27244,-0.528001 -0.93623,-1.367591 -1.47507,-1.865754 -0.62838,-0.580935 -1.16783,-1.556378 -1.50424,-2.72 -0.28849,-0.997837 -0.87239,-2.246247 -1.29757,-2.774247 -2.94296,-3.654691 -3.81314,-4.944506 -4.30177,-6.376237 -0.33696,-0.987344 -0.56296,-1.341565 -0.5766,-0.903763 -0.013,0.416694 -0.22465,0.72 -0.50245,0.72 -0.63684,0 -0.62645,0.04346 0.44499,1.860621 0.50875,0.862832 1.21959,2.234768 1.57965,3.048749 0.36006,0.813981 1.02382,1.963958 1.47501,2.555504 0.48811,0.639945 0.82035,1.493021 0.82035,2.106368 0,1.20584 0.35975,1.958397 1.77292,3.708758 0.56838,0.704001 1.1321,1.741927 1.25271,2.3065 0.15885,0.743552 0.78133,1.482502 2.25826,2.6808 1.12142,0.909866 2.1227,1.87255 2.22507,2.139302 0.37168,0.968599 0.41024,0.187933 0.0912,-1.846601 z m 14.55983,-14.990727 c 0.66,-0.626538 1.2,-1.253936 1.2,-1.394218 0,-0.140282 -0.57281,-0.255056 -1.27291,-0.255056 -0.73129,0 -2.01467,-0.363795 -3.01619,-0.854986 -1.362,-0.667987 -1.86753,-1.130518 -2.31135,-2.114729 -0.31244,-0.692858 -0.90779,-1.482333 -1.323,-1.754391 -0.67916,-0.445008 -0.8043,-0.445283 -1.24683,-0.0029 -0.44253,0.442528 -0.37637,0.659843 0.6592,2.165287 0.63309,0.920364 1.16245,1.981232 1.17635,2.357481 0.0139,0.376253 0.0979,0.504093 0.18666,0.284093 0.22234,-0.551011 1.06807,-0.50529 1.06807,0.05774 0,0.25176 0.324,0.50376 0.72,0.56 0.4915,0.0698 0.75258,0.356154 0.82264,0.902256 0.12448,0.970256 0.88882,1.622336 1.60847,1.372237 0.29089,-0.101094 1.06889,-0.696426 1.72889,-1.322963 z m -4.3112,-16.867419 c 0.82599,-0.578547 0.9329,-1.799498 0.2101,-2.399366 -0.62273,-0.516826 -1.4189,-2.024314 -1.4189,-2.686599 0,-0.317453 0.29192,-0.495891 0.81126,-0.495891 0.7121,0 0.7694,-0.07823 0.46874,-0.64 -0.18838,-0.352 -0.61905,-0.64 -0.95704,-0.64 -0.60791,0 -2.51979,-1.093181 -3.60296,-2.060099 -0.69624,-0.621524 -0.72772,-2.206465 -0.0571,-2.877044 0.27657,-0.276573 0.85257,-0.502857 1.28,-0.502857 0.96929,0 0.99623,-0.450256 0.0659,-1.101857 -1.14805,-0.804124 -1.99759,-0.589814 -3.94262,0.994593 -1.60323,1.30598 -1.76704,1.540595 -1.30933,1.875276 0.28773,0.2104 0.52315,0.541863 0.52315,0.736583 0,0.194723 0.64087,1.075629 1.42416,1.957568 1.48301,1.669792 1.86128,2.772461 1.70589,4.972759 -0.0888,1.256678 -0.0626,1.289744 1.82995,2.311001 2.25972,1.219402 2.0718,1.184215 2.9688,0.555933 z m -16.0417,-6.728819 c 0.26844,-0.40969 0.40022,-0.887037 0.29285,-1.060765 -0.10737,-0.173731 -1.26835,-0.908253 -2.57995,-1.632272 -1.31159,-0.72402 -2.47814,-1.467556 -2.59232,-1.652304 -0.11418,-0.184749 -0.0223,-0.897274 0.2041,-1.583392 0.22644,-0.686116 0.33742,-1.32178 0.24661,-1.412583 -0.0908,-0.0908 -0.79808,0.11751 -1.57174,0.462918 -1.26795,0.566097 -1.33565,0.649316 -0.68665,0.84401 0.99824,0.299463 0.89957,0.992061 -0.2241,1.573133 -1.70151,0.879885 -3.5359,0.420205 -3.5359,-0.886067 0,-0.391472 -0.29923,-0.898637 -0.66495,-1.127037 -0.59707,-0.372877 -0.77757,-0.295879 -1.7679,0.754176 -1.17691,1.247894 -1.96605,2.588624 -2.38648,4.054563 -0.22054,0.768996 -0.13538,0.986125 0.56736,1.446583 0.97354,0.637888 2.74525,0.569315 3.84102,-0.148669 0.96433,-0.63185 4.67268,-0.380122 6.22488,0.422554 2.304,1.191446 3.82839,1.173401 4.63317,-0.05485 z M 200.44643,38.521935 c 0.87292,-0.297434 1.98123,-0.44329 2.60243,-0.342484 1.58122,0.256599 2.6461,-0.675945 2.77318,-2.428553 l 0.098,-1.350896 h 1.36046 c 0.76522,0 1.31347,-0.14001 1.25308,-0.32 -0.0591,-0.176 -0.57486,-0.27193 -1.14623,-0.213181 -0.92914,0.09554 -1.02769,0.02794 -0.93308,-0.64 0.0706,-0.498231 0.3188,-0.746819 0.74577,-0.746819 0.352,0 0.76056,-0.189674 0.90792,-0.421495 0.17982,-0.282878 0.86387,-0.398037 2.08,-0.350164 0.99664,0.03923 2.17208,-0.0485 2.61208,-0.194963 l 0.8,-0.266295 -0.8,-0.207989 c -0.44,-0.114393 -1.23105,-0.08899 -1.75789,0.05646 -1.61632,0.446223 -3.46768,0.295242 -4.56211,-0.372046 -1.50485,-0.917521 -1.46374,-2.556529 0.11602,-4.62547 0.87986,-1.152325 1.06688,-1.602865 0.78287,-1.886016 -0.28381,-0.282951 -0.69466,-0.01353 -1.71602,1.125311 -0.73858,0.823533 -1.80661,1.725023 -2.37339,2.003312 -0.56678,0.278289 -1.19924,0.821248 -1.40546,1.206576 -0.32958,0.615819 -0.25328,0.802168 0.63051,1.539992 1.30095,1.086076 1.28189,1.98938 -0.0636,3.015655 -0.63406,0.483622 -1.21615,1.306275 -1.43049,2.021674 -0.41177,1.374361 -1.71057,2.315459 -3.19555,2.315459 -0.55493,0 -1.03371,0.201488 -1.14059,0.48 -0.12936,0.33711 0.0271,0.481459 0.52577,0.484899 0.39047,0.0026 0.92596,0.14449 1.18996,0.315101 0.264,0.170611 0.49034,0.312406 0.50299,0.315101 0.0126,0.0026 0.70719,-0.228231 1.54344,-0.513168 z M 221.35999,25.57437 c -0.308,-0.179394 -0.56,-0.546897 -0.56,-0.816673 0,-0.386444 0.32058,-0.46793 1.5111,-0.384099 1.20778,0.08505 1.5326,-5.76e-4 1.61826,-0.426622 0.0893,-0.444125 -0.25612,-0.559261 -2.07109,-0.690331 -1.19804,-0.08652 -2.68227,-0.25286 -3.29827,-0.369648 -0.616,-0.116789 -0.96155,-0.09414 -0.7679,0.05033 0.19365,0.14447 0.52684,0.594379 0.74042,0.999797 0.42871,0.813772 2.15605,1.98531 2.90748,1.971949 0.3768,-0.0067 0.3596,-0.07866 -0.08,-0.334704 z m 34.896,-3.558369 c 0.54987,-0.549866 0.47388,-1.355468 -0.18401,-1.95085 -0.536,-0.485072 -0.56755,-0.433821 -0.56,0.909384 0.008,1.502782 0.12274,1.662744 0.74401,1.041466 z M 237.79775,153.68001 c -0.52064,-0.43314 -0.7191,-1.07248 -0.87602,-2.8221 -0.18903,-2.10773 -0.14139,-2.35884 0.69817,-3.68 0.80263,-1.26305 0.89215,-1.669 0.81968,-3.71702 -0.0694,-1.96197 0.0155,-2.39602 0.57953,-2.96 0.36349,-0.36348 0.88653,-0.66088 1.16232,-0.66088 0.73262,0 4.20517,-3.16198 4.64883,-4.23306 0.50053,-1.20839 1.30317,-1.03056 1.79167,0.39695 0.66155,1.93318 0.46037,3.36858 -1.06251,7.58085 -0.81432,2.25239 -1.69219,4.95926 -1.95083,6.01526 -0.25863,1.056 -0.62517,2.33371 -0.81454,2.83936 -0.60515,1.61585 -3.63956,2.36933 -4.9963,1.24064 z m 157.9119,-5.23461 c -1.21446,-1.35076 -1.46966,-1.85087 -1.46966,-2.88 0,-1.67796 0.90595,-1.70033 1.83792,-0.0454 0.37168,0.66 1.11821,1.62294 1.65894,2.13987 1.22397,1.17011 1.33389,2.42013 0.2128,2.42013 -0.52147,0 -1.24518,-0.52814 -2.24,-1.63461 z m 25.73034,-1.70314 c 0,-0.66967 0.15258,-0.82225 0.82227,-0.82225 0.66967,0 0.80327,0.1336 0.72,0.72 -0.0657,0.4627 -0.35955,0.75654 -0.82227,0.82225 -0.5864,0.0833 -0.72,-0.0503 -0.72,-0.72 z m -166.08,-0.50225 c 0,-0.42667 0.21334,-0.64 0.64,-0.64 0.42667,0 0.64,0.21333 0.64,0.64 0,0.42666 -0.21333,0.64 -0.64,0.64 -0.42666,0 -0.64,-0.21334 -0.64,-0.64 z m 157.97334,-2.45334 c -0.11734,-0.11733 -0.21334,-0.62133 -0.21334,-1.12 0,-0.79407 0.1192,-0.90666 0.96,-0.90666 0.64,0 0.96,-0.16 0.96,-0.48 0,-0.34811 0.35818,-0.48 1.30346,-0.48 1.06697,0 1.284,0.10116 1.19609,0.55756 -0.0591,0.30666 -0.50163,0.74652 -0.98345,0.97746 -0.48186,0.23095 -0.8761,0.61263 -0.8761,0.8482 0,0.67287 -1.81142,1.13868 -2.34666,0.60344 z m 10.66666,-0.88441 c 0,-0.66967 0.15258,-0.82225 0.82227,-0.82225 0.66967,0 0.80327,0.1336 0.72,0.72 -0.0657,0.4627 -0.35955,0.75654 -0.82227,0.82225 -0.5864,0.0833 -0.72,-0.0503 -0.72,-0.72 z m -23.45843,-1.40978 c -0.29786,-0.67514 -0.54157,-1.62793 -0.54157,-2.11732 0,-0.73225 0.11331,-0.86016 0.64,-0.72243 0.352,0.0921 0.64,0.0368 0.64,-0.12268 0,-0.15952 0.20947,-0.29004 0.4655,-0.29004 0.62567,0 1.02272,2.15311 0.53965,2.92659 -0.20083,0.3216 -0.36515,0.80268 -0.36515,1.06906 0,0.92867 -0.8408,0.47534 -1.37843,-0.74318 z m 25.05843,-1.33247 c 0,-0.35556 0.21334,-0.64 0.48,-0.64 0.26666,0 0.48,0.28444 0.48,0.64 0,0.35555 -0.21334,0.64 -0.48,0.64 -0.26666,0 -0.48,-0.28445 -0.48,-0.64 z m 1.92,-3.01875 c 0,-0.7033 0.14106,-0.82125 0.98227,-0.82125 0.83559,0 0.96698,0.1075 0.88,0.72 -0.0732,0.51552 -0.35219,0.74875 -0.98227,0.82125 -0.7577,0.0872 -0.88,-0.0129 -0.88,-0.72 z m -190.08,-1.30125 c 0,-0.264 -0.144,-0.48 -0.32,-0.48 -0.176,0 -0.32,-0.288 -0.32,-0.64 0,-0.35556 0.21334,-0.64 0.48,-0.64 0.264,0 0.48,0.26306 0.48,0.58458 0,0.4675 0.19226,0.55636 0.96,0.44368 0.8083,-0.11864 0.96,-0.034 0.96,0.53542 0,0.5596 -0.19328,0.67632 -1.12,0.67632 -0.78222,0 -1.12,-0.14476 -1.12,-0.48 z m 141.92,-2.62976 c -1.5687,-0.38119 -3.67517,-1.49086 -3.84483,-2.02543 -0.24035,-0.75734 -2.27526,-2.54481 -2.89709,-2.54481 -0.26381,0 -0.78704,0.52097 -1.16275,1.15772 l -0.68307,1.15773 -1.77738,-0.2089 c -1.06259,-0.12488 -2.0383,-0.4522 -2.42614,-0.81388 -0.3568,-0.33273 -1.15155,-0.6517 -1.76611,-0.70882 -1.2898,-0.11988 -1.69271,-1.01343 -0.7634,-1.69296 0.48701,-0.35611 0.51764,-0.54764 0.1994,-1.24614 -0.42436,-0.93135 -4.31869,-3.0718 -6.15863,-3.38497 -1.02915,-0.17518 -1.12,-0.28106 -1.12,-1.30521 0,-0.92769 -0.17437,-1.20975 -1.04,-1.68222 -1.88413,-1.02837 -0.9232,-2.27414 1.61223,-2.09016 1.2568,0.0912 1.37558,0.18297 1.75968,1.35936 0.47459,1.45352 1.04761,2.25494 1.31984,1.84589 0.36163,-0.54336 3.1302,-1.98744 3.8103,-1.98744 0.37722,0 1.58858,0.41592 2.6919,0.92427 1.10333,0.50835 2.78384,1.22517 3.73447,1.59293 2.28995,0.88589 5.33187,2.90048 5.76473,3.81785 0.19079,0.40428 0.34685,1.08005 0.34685,1.50171 0,1.20703 1.19482,2.92619 2.90739,4.18335 2.31981,1.70289 2.06666,2.77562 -0.50739,2.15013 z m 13.29197,-0.38789 c -0.18183,-0.33971 -0.65488,-0.66371 -1.05127,-0.72 -0.46339,-0.0658 -0.75721,-0.3594 -0.82297,-0.82235 -0.0833,-0.5864 0.0503,-0.72 0.72,-0.72 0.60893,0 0.82227,-0.16605 0.82227,-0.64 0,-0.9637 0.92067,-0.76871 1.13325,0.24 0.10198,0.484 0.3207,1.13004 0.48608,1.43565 0.16537,0.30562 0.30067,0.84562 0.30067,1.2 0,0.84485 -1.13994,0.86401 -1.58803,0.0267 z m -53.53197,-1.00799 c -0.81357,-0.47385 -0.69872,-1.25436 0.18458,-1.25436 0.64528,0 0.72579,-0.12802 0.60368,-0.96 -0.13341,-0.90903 -0.0838,-0.95831 0.93542,-0.92811 1.64135,0.0487 2.66205,0.41948 2.77546,1.00836 0.0803,0.41703 -0.23722,0.57724 -1.46736,0.74043 -1.4416,0.19123 -1.55789,0.27079 -1.42352,0.97378 0.11248,0.58836 0.008,0.76328 -0.45095,0.75581 -0.32851,-0.005 -0.84931,-0.15651 -1.15731,-0.33591 z m 4.88711,-0.21436 c 0.017,-1.33435 1.81011,-2.64 3.62569,-2.64 2.46259,0 2.88141,0.91759 0.71127,1.55835 -0.77879,0.22994 -1.66509,0.69338 -1.9696,1.02986 -0.72074,0.79639 -2.37728,0.83263 -2.36736,0.0518 z m 73.27289,-0.4 c 0,-0.42667 0.21334,-0.64 0.64,-0.64 0.42666,0 0.64,0.21333 0.64,0.64 0,0.42666 -0.21334,0.64 -0.64,0.64 -0.42666,0 -0.64,-0.21334 -0.64,-0.64 z m -82.02665,-0.85334 c -0.11735,-0.11733 -0.21335,-0.47733 -0.21335,-0.8 0,-0.49777 0.26666,-0.58666 1.76,-0.58666 1.51034,0 1.76,0.0855 1.76,0.60267 0,0.3545 -0.29651,0.68214 -0.72,0.79563 -0.96361,0.25824 -2.32291,0.25212 -2.58665,-0.0116 z m 52.97651,-0.18666 c -0.18071,-0.22 -0.37834,-0.76 -0.4392,-1.2 -0.089,-0.64325 -0.31757,-0.81989 -1.16675,-0.90148 -1.12208,-0.10782 -1.66391,-0.91517 -1.66391,-2.47936 0,-1.06081 0.69104,-0.98016 1.54941,0.18084 0.42608,0.57629 1.0001,0.96 1.43616,0.96 0.98128,0 1.48566,0.57194 1.53802,1.744 0.0337,0.75402 0.0751,0.81224 0.18224,0.256 0.16915,-0.8782 1.07088,-0.94555 1.80457,-0.13481 0.77478,0.85613 0.67517,1.65481 -0.2064,1.65481 -0.4048,0 -0.9088,-0.1728 -1.12,-0.384 -0.29865,-0.29867 -0.384,-0.26311 -0.384,0.16 0,0.63832 -1.04352,0.73652 -1.53014,0.144 z m -56.54986,-0.41746 c -0.32432,-0.12865 -3.40921,-0.58993 -7.2,-1.07659 -2.91315,-0.374 -3.84,-0.79489 -3.84,-1.7438 0,-0.42552 0.22778,-0.86109 0.50618,-0.96792 0.85453,-0.32791 2.788,-0.18986 4.13382,0.29516 0.83549,0.30111 1.81543,0.39204 2.82173,0.26185 1.27229,-0.1646 1.70346,-0.0799 2.46704,0.48465 0.50893,0.37626 1.0823,0.68411 1.27418,0.68411 0.82585,0 2.23705,1.0145 2.23705,1.60821 0,0.50463 -0.20931,0.6267 -1.04,0.60652 -0.572,-0.0139 -1.184,-0.0824 -1.36,-0.15219 z m 47.12,-3.04818 c -0.92339,-0.53783 -0.64147,-1.20776 0.65523,-1.55693 0.66839,-0.17997 1.62592,-0.75587 2.12784,-1.27976 l 0.91258,-0.95254 -1.00579,-0.57257 c -1.21002,-0.68881 -1.36253,-1.69256 -0.25719,-1.69256 1.30176,0 2.91428,1.32629 3.02762,2.49021 0.0573,0.58848 -0.0485,1.02979 -0.24688,1.02979 -0.19091,0 -0.49597,0.32663 -0.67786,0.72586 -0.73558,1.61445 -3.18908,2.59275 -4.53555,1.8085 z m -124.4,-1.89436 c 0,-0.42667 0.21334,-0.64 0.64,-0.64 0.42667,0 0.64,0.21333 0.64,0.64 0,0.42666 -0.21333,0.64 -0.64,0.64 -0.42666,0 -0.64,-0.21334 -0.64,-0.64 z m 84.48,-0.19701 c 0,-0.48265 -0.17456,-1.36025 -0.38787,-1.95022 -0.33888,-0.93714 -0.30054,-1.24325 0.30336,-2.42272 0.38022,-0.74253 0.75856,-1.97323 0.84077,-2.73489 0.23494,-2.17629 0.84099,-2.61703 3.53072,-2.5676 1.25017,0.023 2.74102,-0.0667 3.31302,-0.19922 0.92659,-0.21471 1.04,-0.16566 1.04,0.44988 0,0.91513 -1.38256,2.26468 -2.30544,2.25044 -0.404,-0.006 -1.08729,-0.20669 -1.51843,-0.44545 -1.15414,-0.63914 -2.93024,0.12451 -2.23578,0.96129 0.24362,0.29357 0.82148,0.36354 1.92394,0.23297 1.83936,-0.21785 2.0991,0.26115 0.73251,1.35083 -0.72083,0.57478 -0.79049,0.77082 -0.48,1.35098 0.56528,1.05623 0.47181,3.28072 -0.13782,3.28072 -0.89027,0 -1.66016,-0.60246 -1.87773,-1.46932 -0.30698,-1.22301 -0.66125,-0.63462 -0.66125,1.09819 0,1.44839 -0.0298,1.494 -1.04,1.5914 -0.94489,0.0911 -1.04,0.02 -1.04,-0.77728 z m -6.24,-2.04582 c -0.352,-0.15374 -1.62483,-0.37283 -2.82851,-0.48687 -1.46608,-0.13891 -2.37859,-0.39742 -2.76429,-0.78312 -0.72944,-0.72943 -1.77139,-5.06945 -1.48806,-6.19825 0.17849,-0.71117 0.3903,-0.84893 1.30541,-0.84893 0.7752,0 1.14598,-0.16906 1.27715,-0.58228 0.10163,-0.32026 0.68083,-0.81883 1.28707,-1.10793 0.60627,-0.28911 1.32826,-0.96259 1.60442,-1.49662 0.2782,-0.53797 0.98419,-1.1724 1.58313,-1.42266 0.59456,-0.24842 1.41021,-0.89691 1.81255,-1.44109 0.95116,-1.28656 2.29484,-1.33555 3.55363,-0.12956 1.05936,1.01494 1.13773,1.94844 0.2575,3.06745 -0.80038,1.01755 -0.80038,1.76943 0,2.79269 0.84525,1.08058 0.79735,1.86412 -0.16,2.61717 -0.44,0.3461 -0.8,0.82189 -0.8,1.05732 0,0.51963 -1.6888,4.14136 -2.24182,4.80771 -0.43584,0.52514 -1.40691,0.58789 -2.39818,0.15497 z m 18.48,-0.2091 c -0.22,-0.0888 -0.4,-0.43741 -0.4,-0.77474 0,-0.47953 0.22688,-0.61238 1.04,-0.60897 1.48768,0.006 2.48,0.32585 2.48,0.79872 0,0.69012 -1.95229,1.05617 -3.12,0.58499 z m 51.12,-4.58807 c 0,-0.42667 0.21334,-0.64 0.64,-0.64 0.42666,0 0.64,0.21333 0.64,0.64 0,0.42666 -0.21334,0.64 -0.64,0.64 -0.42666,0 -0.64,-0.21334 -0.64,-0.64 z m -52.31593,-0.31341 c -0.20144,-0.32593 0,-2.32357 0.36086,-3.60659 0.2272,-0.80422 2.03507,-0.78053 2.03507,0.0266 0,0.32267 -0.108,0.6947 -0.24,0.82672 -0.132,0.13204 -0.24,0.84004 -0.24,1.57334 0,1.20497 -0.0818,1.34274 -0.84979,1.43162 -0.46736,0.0541 -0.94714,-0.0592 -1.06614,-0.25175 z M 189.44,115.84001 c 0,-0.42667 0.21333,-0.64 0.64,-0.64 0.42666,0 0.64,0.21333 0.64,0.64 0,0.42666 -0.21334,0.64 -0.64,0.64 -0.42667,0 -0.64,-0.21334 -0.64,-0.64 z m 221.75999,-0.64 c 0,-0.42667 0.21334,-0.64 0.64,-0.64 0.42666,0 0.64,0.21333 0.64,0.64 0,0.42666 -0.21334,0.64 -0.64,0.64 -0.42666,0 -0.64,-0.21334 -0.64,-0.64 z m -220.79999,-0.8 c 0,-0.264 0.216,-0.48 0.48,-0.48 0.264,0 0.48,0.216 0.48,0.48 0,0.264 -0.216,0.48 -0.48,0.48 -0.264,0 -0.48,-0.216 -0.48,-0.48 z m 85.65333,-3.25334 c -0.41288,-0.41287 -0.20641,-1.3936 0.42666,-2.02666 0.97237,-0.97237 1.28,-0.78009 1.28,0.8 0,1.29523 -0.0751,1.44 -0.74666,1.44 -0.41067,0 -0.84267,-0.096 -0.96,-0.21334 z m 69.14093,-3.30666 c -0.43504,-1.10751 -0.63561,-1.28 -1.48854,-1.28 -0.99725,0 -1.19706,-0.35694 -0.79149,-1.41383 0.12499,-0.32577 0.5864,-0.50617 1.29453,-0.50617 1.08333,0 2.67123,-1.13271 2.67123,-1.90546 0,-0.184 0.18935,-0.33454 0.42074,-0.33454 0.56096,0 1.47478,1.97201 1.7104,3.69104 0.16809,1.22642 0.0885,1.47843 -0.69741,2.20675 -0.4977,0.46123 -1.26682,0.82221 -1.7519,0.82221 -0.71175,0 -0.9537,-0.22649 -1.36756,-1.28 z m -58.58887,-0.56 c -0.25399,-1.53663 -0.25863,-3.08893 -0.0112,-3.73383 0.54227,-1.41315 2.53309,0.54511 2.90898,2.8614 0.22535,1.3887 -0.38253,2.07243 -1.84251,2.07243 -0.74168,0 -0.88365,-0.16144 -1.05532,-1.2 z m 71.7946,-1.2 c 0,-0.58667 0.17066,-0.8 0.64,-0.8 0.46935,0 0.64,0.21333 0.64,0.8 0,0.58666 -0.17065,0.8 -0.64,0.8 -0.46934,0 -0.64,-0.21334 -0.64,-0.8 z m 31.04,0.32 c 0,-0.26667 0.28445,-0.48 0.64,-0.48 0.35555,0 0.64,0.21333 0.64,0.48 0,0.26666 -0.28445,0.48 -0.64,0.48 -0.35555,0 -0.64,-0.21334 -0.64,-0.48 z m 19.2,-0.16 c 0,-0.42667 0.21334,-0.64 0.64,-0.64 0.42666,0 0.64,0.21333 0.64,0.64 0,0.42666 -0.21334,0.64 -0.64,0.64 -0.42666,0 -0.64,-0.21334 -0.64,-0.64 z m -72.64,-1.96705 c 0,-0.9262 2.12765,-3.47295 2.90141,-3.47295 1.01702,0 0.82342,1.87311 -0.32336,3.12868 -1.13523,1.24292 -2.57805,1.4356 -2.57805,0.34427 z m 6.93335,-0.16629 c -0.11735,-0.11733 -0.21335,-0.60454 -0.21335,-1.08268 0,-0.6105 -0.19757,-0.92101 -0.66355,-1.04286 -0.5095,-0.13324 -0.63952,-0.38335 -0.56,-1.07733 0.0821,-0.71653 0.28589,-0.924774 0.98355,-1.005049 0.50368,-0.05796 0.88,-0.297431 0.88,-0.56 0,-0.252311 0.288,-0.458746 0.64,-0.458746 0.35555,0 0.64,0.213334 0.64,0.48 0,0.264 -0.216,0.48 -0.48,0.48 -0.264,0 -0.48,0.204225 -0.48,0.453825 0,0.24961 -0.0802,0.66268 -0.17811,0.91795 -0.11126,0.28998 0.0688,0.52869 0.48,0.63621 0.65965,0.1725 0.84714,0.9671 0.46387,1.96584 -0.19571,0.51005 -1.11686,0.6884 -1.51241,0.29284 z m 1.85203,-2.09331 c -0.14183,-0.64562 -0.0965,-1.06964 0.12205,-1.1425 0.20457,-0.0682 0.27043,-0.5016 0.16006,-1.053354 -0.16864,-0.843322 -0.10435,-0.937501 0.64003,-0.937501 0.93731,0 2.13248,1.109901 2.13248,1.980335 0,0.40498 -0.24109,0.57967 -0.8,0.57967 -0.64,0 -0.8,0.16 -0.8,0.8 0,1.25896 -1.16832,1.07693 -1.45462,-0.22665 z m -4.62384,-2.651515 c -0.21827,-0.262989 -0.32163,-0.871619 -0.2297,-1.352509 0.12653,-0.661862 -0.0659,-1.139744 -0.79171,-1.966416 -0.82317,-0.937523 -0.93206,-1.266893 -0.7695,-2.327491 0.10416,-0.679482 0.27651,-1.811424 0.38297,-2.515424 0.17482,-1.155697 0.28403,-1.280001 1.12471,-1.280001 1.59833,0 2.73116,2.572769 1.85427,4.211229 -0.46592,0.870567 0.67773,2.116301 2.06691,2.251444 0.87363,0.08499 1.01334,0.230976 1.10182,1.151177 l 0.10132,1.053847 -1.62132,-0.215072 c -1.5918,-0.211162 -1.62131,-0.19976 -1.62131,0.62615 0,0.96105 -0.92739,1.171691 -1.59846,0.363066 z M 102.4,97.920005 c 0,-0.426666 0.21333,-0.64 0.64,-0.64 0.42666,0 0.64,0.213334 0.64,0.64 0,0.426665 -0.21334,0.64 -0.64,0.64 -0.42667,0 -0.64,-0.213335 -0.64,-0.64 z m 47.36,-3.005763 c 0,-0.489287 0.67241,-0.834237 1.62617,-0.834237 0.40049,0 0.61383,0.222428 0.61383,0.64 0,0.518096 -0.21334,0.64 -1.12,0.64 -0.74399,0 -1.12,-0.149655 -1.12,-0.445763 z m -0.32,-1.634237 c 0,-0.32 -0.32,-0.48 -0.96,-0.48 -0.74667,0 -0.96,-0.142221 -0.96,-0.64 0,-0.475495 0.21333,-0.64 0.82995,-0.64 0.56084,0 0.88423,0.207526 0.99733,0.64 0.0921,0.352 0.36657,0.64 0.61004,0.64 0.24347,0 0.44268,0.216 0.44268,0.48 0,0.264 -0.216,0.48 -0.48,0.48 -0.264,0 -0.48,-0.216 -0.48,-0.48 z m 1.6,0 c 0,-0.264 0.216,-0.48 0.48,-0.48 0.264,0 0.48,0.216 0.48,0.48 0,0.264 -0.216,0.48 -0.48,0.48 -0.264,0 -0.48,-0.216 -0.48,-0.48 z m -54.016002,-0.544 c -0.625539,-0.62554 -0.468899,-1.312845 0.256,-1.12328 0.415955,0.108774 0.64,0.0098 0.64,-0.282679 0,-0.247523 0.288,-0.450041 0.64,-0.450041 0.426665,0 0.64,0.213334 0.64,0.64 0,0.355555 -0.213335,0.64 -0.48,0.64 -0.264,0 -0.48,0.216 -0.48,0.48 0,0.576086 -0.682067,0.629932 -1.216,0.096 z m 2.496,-1.216 c 0,-0.426666 0.213334,-0.64 0.640002,-0.64 0.42666,0 0.64,0.213334 0.64,0.64 0,0.426665 -0.21334,0.64 -0.64,0.64 -0.426668,0 -0.640002,-0.213335 -0.640002,-0.64 z m -6.64,-0.234308 c -1.195363,-0.107664 -1.36,-0.21711 -1.36,-0.904093 0,-0.698534 0.136035,-0.7816 1.28,-0.7816 0.924445,0 1.28,0.133335 1.28,0.48 0,0.264 0.216,0.480001 0.48,0.480001 0.264,0 0.48,0.216 0.48,0.48 0,0.264 -0.18,0.454841 -0.4,0.424092 -0.22,-0.03075 -1.012,-0.111027 -1.76,-0.1784 z M 77.333333,90.98667 c -0.117335,-0.117331 -0.213335,-0.477331 -0.213335,-0.8 0,-0.454467 0.24648,-0.586666 1.093827,-0.586666 1.508064,0 2.106173,0.282343 2.106173,0.994237 0,0.501156 -0.239456,0.605764 -1.386665,0.605764 -0.762669,0 -1.482669,-0.096 -1.6,-0.213335 z m 7.306665,-0.0058 c -2.052528,-0.178793 -2.72,-0.401369 -2.72,-0.907008 0,-0.339555 0.362874,-0.473904 1.28,-0.473904 1.152,0 1.28,-0.08 1.28,-0.8 0,-0.772512 0.07256,-0.8 2.111638,-0.8 2.384964,0 4.288362,0.709078 4.288362,1.597558 0,0.427616 -0.501296,0.690557 -2.065766,1.08354 -1.13617,0.285395 -2.25217,0.494694 -2.48,0.46511 -0.227828,-0.0296 -0.990234,-0.103968 -1.694234,-0.165296 z m 11.893334,0.0058 c -0.117334,-0.117331 -0.213334,-0.487891 -0.213334,-0.823462 0,-0.872106 1.093005,-0.585885 1.222256,0.320067 0.09848,0.690253 -0.515651,0.996669 -1.008922,0.503395 z m 226.560008,-0.32 c -0.11735,-0.117331 -0.21335,-0.677926 -0.21335,-1.245763 0,-1.148656 0.40355,-1.420903 2.10618,-1.420903 1.24669,0 1.38237,0.43377 0.6056,1.935892 -0.36477,0.705379 -0.71539,0.944109 -1.38666,0.944109 -0.49414,0 -0.99446,-0.096 -1.11177,-0.213335 z M 79.119998,88.085697 c -1.011565,-0.09111 -1.362182,-0.261251 -1.368518,-0.664093 -0.0047,-0.299254 -0.756445,-1.015321 -1.68,-1.600285 -1.730621,-1.09614 -1.772205,-1.100374 -4.951482,-0.50382 -0.903561,0.169542 -1.04,0.107494 -1.04,-0.472957 0,-1.876122 5.705322,-2.282391 8.8,-0.62664 0.88,0.470825 2.356,1.224595 3.28,1.67504 1.147968,0.559629 1.68,1.01113 1.68,1.425706 0,0.93582 -1.014947,1.100758 -4.72,0.767049 z m 3.499274,-2.885693 c 0.06405,-0.337753 0.454358,-0.600185 0.983462,-0.661254 0.705997,-0.08149 0.877264,0.02784 0.877264,0.56 0,0.524899 -0.202797,0.661254 -0.983462,0.661254 -0.763757,0 -0.959741,-0.125104 -0.877264,-0.56 z M 337.13814,84.408801 c -0.99498,-1.420528 -0.18848,-4.088797 1.23584,-4.088797 1.16048,0 1.45056,1.290534 0.80918,3.6 -0.38893,1.40049 -1.26054,1.608816 -2.04502,0.488797 z M 82.239998,83.040004 c 0,-0.266665 0.284445,-0.48 0.64,-0.48 0.355555,0 0.64,0.213335 0.64,0.48 0,0.266666 -0.284445,0.48 -0.64,0.48 -0.355555,0 -0.64,-0.213334 -0.64,-0.48 z m 0,-1.44 c 0,-0.355555 0.213335,-0.64 0.48,-0.64 0.266666,0 0.48,0.284445 0.48,0.64 0,0.355555 -0.213334,0.64 -0.48,0.64 -0.266665,0 -0.48,-0.284445 -0.48,-0.64 z m -3.776,-0.064 c -0.565872,-0.565872 -0.466832,-1.775952 0.176,-2.150368 0.310787,-0.181018 0.381991,-0.330502 0.16,-0.335901 -0.22,-0.0054 -0.4,-0.369731 -0.4,-0.809731 0,-0.746666 0.106666,-0.8 1.6,-0.8 1.564445,0 1.6,0.02134 1.6,0.96 0,0.528 -0.154285,0.96 -0.342857,0.96 -0.610656,0 -1.257143,0.893328 -1.257143,1.737142 0,0.897882 -0.837648,1.13721 -1.536,0.438858 z M 346.73932,71.420861 c -0.10762,-0.339049 -0.48,-0.87376 -0.82749,-1.18825 -0.73603,-0.666076 -0.83817,-2.013516 -0.17203,-2.269132 0.25286,-0.09704 0.37779,-0.390106 0.27757,-0.651252 -0.28839,-0.75152 1.77709,-2.323763 3.07305,-2.339219 0.77216,-0.0092 1.58148,-0.391824 2.77258,-1.310765 0.92518,-0.713766 1.76515,-1.514096 1.86662,-1.778509 0.10148,-0.264416 -0.10217,-1.042685 -0.45257,-1.729494 -0.35037,-0.686807 -0.63706,-1.597683 -0.63706,-2.024167 0,-0.469203 -0.22115,-0.833443 -0.56,-0.922336 -0.93597,-0.245542 -1.54448,-1.730704 -1.14393,-2.791888 0.19824,-0.525187 0.2271,-1.09191 0.0684,-1.342378 -0.15107,-0.238406 -0.27689,-0.757468 -0.27958,-1.153468 -0.007,-0.965002 0.78099,-0.928765 2.12697,0.09786 0.58973,0.449824 1.79133,1.031402 2.67021,1.292397 1.84055,0.546582 2.02519,1.100384 0.75831,2.27448 -0.70375,0.652218 -1.04032,0.744221 -2.08,0.568566 -1.11136,-0.187763 -1.24039,-0.140067 -1.24039,0.458567 0,0.481929 0.20311,0.668128 0.7288,0.668128 1.66906,0 2.77303,1.440662 3.18781,4.16 0.14762,0.968 0.34432,2.264 0.43706,2.88 0.2384,1.583498 -0.38167,2.267668 -2.24557,2.477757 -1.3304,0.149955 -1.57511,0.293661 -1.85184,1.087514 -0.38336,1.099709 -1.2057,1.18624 -1.85063,0.194729 -0.46403,-0.713417 -0.46985,-0.70976 -0.63696,0.4 -0.14963,0.993632 -0.27699,1.12 -1.12867,1.12 -0.85334,0 -0.97779,0.124445 -1.12,1.120001 -0.12029,0.842041 -0.33187,1.144483 -0.85251,1.218656 -0.45786,0.06522 -0.75882,-0.110244 -0.88816,-0.517799 z M 210.96,66.550032 c -0.396,-0.159174 -0.72,-0.510045 -0.72,-0.779718 0,-0.380087 0.38977,-0.490311 1.73382,-0.490311 2.1457,0 2.74618,0.217402 2.74618,0.994237 0,0.512179 -0.23483,0.602631 -1.52,0.585479 -0.836,-0.01117 -1.844,-0.150516 -2.24,-0.309687 z M 198.4,65.120003 c 0,-0.266665 0.28444,-0.48 0.64,-0.48 0.35555,0 0.64,0.213335 0.64,0.48 0,0.266666 -0.28445,0.48 -0.64,0.48 -0.35556,0 -0.64,-0.213334 -0.64,-0.48 z m -15.36,-4.48 c 0,-0.264 0.1992,-0.48 0.44267,-0.48 0.24348,0 0.51799,-0.288 0.61005,-0.64 0.11309,-0.432474 0.43648,-0.64 0.99732,-0.64 0.67195,0 0.82996,0.152301 0.82996,0.8 0,0.675555 -0.14934,0.8 -0.96,0.8 -0.528,0 -0.96,0.144 -0.96,0.32 0,0.176 -0.216,0.32 -0.48,0.32 -0.264,0 -0.48,-0.216 -0.48,-0.48 z m 8.62516,-0.679014 c -0.18472,-0.485866 -0.29296,-1.25185 -0.24051,-1.702189 0.0779,-0.668752 0.28912,-0.837412 1.15282,-0.920375 l 1.05747,-0.101577 -0.0975,1.701577 c -0.0851,1.485328 -0.18891,1.714564 -0.81696,1.803767 -0.53852,0.07649 -0.80396,-0.120003 -1.05535,-0.781203 z M 186.24,59.040003 c 0,-0.264 0.216,-0.48 0.48,-0.48 0.264,0 0.48,0.216 0.48,0.48 0,0.264 -0.216,0.48 -0.48,0.48 -0.264,0 -0.48,-0.216 -0.48,-0.48 z m 5.81972,-3.12 c 0.0769,-0.797104 0.26844,-1.063882 0.82028,-1.142256 0.63129,-0.08966 0.72,0.03847 0.72,1.04 0,1.012601 -0.0931,1.142256 -0.82028,1.142256 -0.73267,0 -0.80956,-0.111066 -0.72,-1.04 z M 176.05653,44.268332 c 0.0569,-0.292419 0.60747,-0.713466 1.22347,-0.935658 0.8414,-0.303491 0.9456,-0.410038 0.41888,-0.428326 -0.38561,-0.01338 -0.79458,-0.175584 -0.90883,-0.360432 -0.33079,-0.535236 0.73775,-2.450391 1.4747,-2.643108 0.91377,-0.238956 0.67778,-1.260064 -0.34643,-1.498928 -1.11935,-0.261053 -1.64568,-2.753558 -0.84085,-3.981894 0.59805,-0.912727 1.94023,-1.116602 2.23825,-0.339984 0.1013,0.264 0.40471,0.48 0.67423,0.48 0.5595,0 0.66952,1.131309 0.14174,1.457494 -0.21303,0.131658 -0.0655,0.356493 0.37994,0.578887 0.40053,0.19999 1.13645,1.191619 1.63537,2.203619 0.73995,1.500909 1.05325,1.84 1.70006,1.84 0.62301,0 0.79294,0.164102 0.79294,0.765763 0,0.421171 -0.216,0.84865 -0.48,0.949959 -0.264,0.101305 -0.48,0.440784 -0.48,0.7544 0,0.479427 -0.57315,0.660816 -3.6,1.139337 -4.31398,0.682004 -4.15237,0.681245 -4.02347,0.01888 z m -4.99499,-1.353475 c -0.11784,-0.190663 -0.11504,-1.22362 0.006,-2.295457 0.18368,-1.623513 0.34146,-1.994787 0.94527,-2.224358 0.39863,-0.151558 0.81927,-0.428445 0.93476,-0.615303 0.11548,-0.186854 0.99347,-0.339737 1.95108,-0.339737 1.6936,0 1.74112,0.02445 1.74112,0.896 0,0.4928 -0.15946,1.055459 -0.35436,1.250352 -0.19489,0.194893 -0.44827,0.813555 -0.56305,1.374803 -0.16778,0.820336 -0.45912,1.114467 -1.48565,1.499872 -1.85071,0.694845 -2.93102,0.849242 -3.1754,0.453828 z M 34.691506,37.961138 c -0.360793,-0.940211 0.01286,-1.638711 0.933248,-1.744515 0.842573,-0.09686 0.892848,-0.03632 0.797264,0.96 -0.07881,0.821468 -0.266137,1.086685 -0.823449,1.165824 -0.423098,0.06008 -0.798195,-0.0976 -0.907063,-0.381309 z m 98.644504,-7.754359 c -1.90466,-0.991105 -2.41197,-2.067167 -2.40512,-5.101603 0.006,-2.78824 0.34603,-3.708645 1.64267,-4.45035 2.54021,-1.453046 3.16266,-2.903891 1.66644,-3.884251 -0.44,-0.2883 -0.8,-0.80277 -0.8,-1.143269 0,-0.889739 -0.75351,-2.20533 -1.87217,-3.268717 -0.92459,-0.878904 -1.11413,-0.923362 -4.10857,-0.963682 -1.72659,-0.02325 -3.31926,-0.157112 -3.53926,-0.297474 -0.32661,-0.208381 -0.6118,-2.4574326 -0.31161,-2.4574326 0.0486,0 1.30862,-0.1500934 2.8,-0.3335414 1.91694,-0.2357927 3.60252,-0.7150244 5.75161,-1.6352526 3.28594,-1.4070241 4.15346,-1.4979002 12,-1.257057 1.84885,0.056749 4.36943,-0.1590634 7.04,-0.6027652 2.288,-0.3801405 5.024,-0.653609 6.08,-0.6077078 1.056,0.045901 2.61294,-0.03484 3.45988,-0.179425 1.97176,-0.3366106 6.94459,0.2853943 8.49673,1.0627764 0.88759,0.444543 1.63752,0.5463302 3.16339,0.4293629 1.63134,-0.1250532 2,-0.064969 2,0.3259661 0,0.756535 -0.66523,1.1084887 -2.56,1.3544285 -2.04168,0.2650071 -3.51137,1.3890359 -3.53434,2.7030843 -0.0169,0.9667384 -2.2335,3.5432764 -3.67672,4.2737624 -0.53408,0.270326 -1.51898,0.594291 -2.18865,0.719923 l -1.2176,0.228422 1.22866,0.687662 c 1.62679,0.910498 1.84612,2.034867 0.45136,2.31382 -0.66728,0.133455 -0.98271,0.38448 -0.98271,0.782042 0,0.426606 -0.32566,0.641428 -1.2,0.791589 -0.66,0.113349 -2.03667,0.41406 -3.05925,0.668248 -1.02259,0.254188 -2.46259,0.432134 -3.2,0.395437 -1.39355,-0.06935 -2.79806,0.499198 -4.58127,1.854518 -0.62484,0.474906 -1.94613,0.941362 -3.51894,1.24229 -3.19636,0.611565 -4.51316,1.486754 -6.43645,4.277893 -0.83825,1.216498 -1.85487,2.367674 -2.25915,2.55817 -1.16558,0.549215 -2.66106,0.381022 -4.32893,-0.486867 z M 160.64,17.799183 c 0,-0.06645 -0.216,-0.300082 -0.48,-0.519182 -0.39313,-0.326263 -0.48,-0.304395 -0.48,0.120817 0,0.285551 0.216,0.519183 0.48,0.519183 0.264,0 0.48,-0.05437 0.48,-0.120818 z m -49.94697,10.288372 c -0.63083,-0.376264 -1.46152,-1.16396 -1.84596,-1.750436 -0.60549,-0.923683 -0.8159,-1.034672 -1.57303,-0.829726 -0.48072,0.130127 -1.37804,0.240197 -1.99404,0.244601 -0.91552,0.0065 -1.1384,-0.121383 -1.22078,-0.700682 -0.12406,-0.872467 0.91019,-1.205621 3.00852,-0.969108 1.11357,0.125515 1.51617,0.03934 1.82096,-0.389746 0.69391,-0.976912 1.81904,-1.364863 3.3879,-1.168165 1.18724,0.148852 1.34803,0.117043 0.80536,-0.159329 -0.37292,-0.189922 -0.99109,-0.902324 -1.37372,-1.583116 -0.98498,-1.752538 -2.36271,-2.685065 -3.2586,-2.205601 -0.45836,0.245308 -1.28712,0.284518 -2.48844,0.117734 -0.99066,-0.137537 -2.47179,-0.211701 -3.29139,-0.164809 -1.80414,0.10322 -2.831524,-0.384279 -2.824913,-1.34043 0.0062,-0.901714 0.212323,-1.18535 1.639553,-2.256524 1.2537,-0.940937 4.43555,-1.58777 4.43555,-0.901697 0,0.245716 0.58295,0.301753 1.84,0.176871 1.6345,-0.16238 1.96232,-0.09092 2.93531,0.639845 0.89325,0.670889 1.31898,0.786871 2.30787,0.628741 1.07095,-0.171251 1.3069,-0.08179 2.02023,0.76595 0.50927,0.605235 1.33416,1.092423 2.23279,1.318699 1.34027,0.337483 1.43105,0.430293 1.52447,1.558525 0.0815,0.984819 0.31424,1.338325 1.29933,1.973874 0.8951,0.577495 1.2,0.991893 1.2,1.630993 0,1.67394 -1.81121,2.412819 -3.52,1.435982 -1.18449,-0.677114 -1.33013,-0.592604 -1.09929,0.637897 0.11535,0.614843 0.11527,1.494218 -1.7e-4,1.954166 -0.175,0.697281 -0.3576,0.81459 -1.09866,0.705826 -0.78143,-0.11469 -0.87177,-0.04152 -0.74802,0.605834 0.13156,0.688219 0.0391,0.735353 -1.41656,0.722112 -0.99893,-0.0091 -1.96855,-0.259457 -2.70427,-0.698281 z m 51.68813,-1.357377 c -0.34164,-0.258402 -0.94516,-0.474402 -1.34116,-0.48 -0.47756,-0.0067 -0.72,-0.205087 -0.72,-0.589015 0,-1.431012 1.6714,-2.142256 5.81449,-2.474283 2.76459,-0.221554 3.78551,0.111616 3.78551,1.235386 0,0.905811 -1.13606,1.597405 -3.72619,2.268388 -2.43021,0.629552 -3.02442,0.635712 -3.81265,0.03952 z M 109.28,13.597675 c -0.176,-0.06149 -1.868,-0.207978 -3.76,-0.325531 -3.33552,-0.207239 -3.44,-0.236542 -3.44,-0.964792 0,-1.514304 2.43194,-2.255199 4.16,-1.267351 0.83133,0.475231 7.0538,0.707137 6.59236,0.245691 -0.12887,-0.12887 -1.0823,-0.192283 -2.11872,-0.140918 -2.03596,0.100901 -3.19364,-0.305314 -3.19364,-1.120606 0,-0.4214866 0.27191,-0.4847048 1.52,-0.3533896 0.836,0.087958 1.88,0.05037 2.32,-0.083529 0.44,-0.1338995 0.62,-0.2578074 0.4,-0.275351 -0.22,-0.017544 -0.4,-0.2478976 -0.4,-0.5118977 0,-0.3174685 0.31752,-0.48 0.93774,-0.48 0.72884,0 0.96052,-0.1603936 1.04,-0.72 0.0988,-0.6955873 0.21076,-0.7183837 3.30226,-0.6723287 l 3.2,0.047671 -2.8,-0.3263476 c -2.00875,-0.2341245 -2.8,-0.4510624 -2.8,-0.7676714 0,-0.2427283 0.18,-0.4452256 0.4,-0.4499942 0.22,-0.00477 1.768,-0.1509424 3.44,-0.3248301 1.672,-0.1738877 5.056,-0.4511229 7.52,-0.6160781 2.464,-0.1649556 5.38,-0.3992957 6.48,-0.5207562 1.72677,-0.1906682 2,-0.1494707 2,0.3015629 0,1.0081591 -7.15745,3.6812267 -9.95496,3.7178434 -0.45922,0.00601 -1.6445,0.4429286 -2.63395,0.9709286 -0.98945,0.5280001 -1.99472,0.9600001 -2.23393,0.9600001 -0.23922,0 -1.32997,0.4472516 -2.4239,0.9938936 -1.15479,0.577058 -2.29864,0.934693 -2.72736,0.852738 -0.58049,-0.110968 -0.70692,-0.02075 -0.59117,0.421867 0.26179,1.001065 -2.63949,1.96651 -4.23473,1.409176 z m -2.8,-5.1868759 c -1.19543,-0.1810921 -1.16952,-1.2046474 0.0464,-1.8334279 1.19221,-0.6165149 3.29701,-0.9511488 4.33848,-0.6897568 1.18007,0.2961785 1.08711,1.4752711 -0.17285,2.192386 -0.93106,0.5299229 -2.22616,0.6316349 -4.21204,0.3307987 z"
      id="path293" />
</svg>